<svg width="80" height="80" viewBox="0 0 80 80" fill="none" xmlns="http://www.w3.org/2000/svg">
<circle cx="40" cy="40" r="40" fill="#651FFF"/>
<g clip-path="url(#clip0_885_528)">
<path d="M39.9438 33.5524C35.5774 33.5383 32.6313 36.8571 32.6946 40.661C32.7473 44.0269 32.4309 47.4019 31.7545 50.6805C31.5611 51.5313 32.1499 52.4819 33.0637 52.6753C33.9145 52.8599 34.8651 52.2798 35.0585 51.3661C35.7876 47.842 36.1216 44.2223 36.0689 40.6715C36.0414 38.7766 37.4055 36.9133 39.8946 36.9274C42.1003 36.9626 43.9192 38.7112 43.946 40.8297C44.0075 44.1415 43.7526 47.5973 43.1992 50.9196C43.0498 51.7704 43.6738 52.7034 44.5964 52.8616C45.9935 53.0901 46.4772 51.7985 46.5299 51.4645C47.11 48.0122 47.3821 44.3559 47.321 40.8403C47.2563 36.843 43.9516 33.6086 39.9438 33.5524ZM57.5852 36.3157C57.383 35.4649 56.4946 34.8215 55.5721 35.0233C54.7214 35.2255 54.0871 36.1308 54.2889 37.0357C54.6229 38.5474 54.6317 39.6724 54.6229 41.3683C54.6141 42.3 55.3612 43.0643 56.2928 43.0734C57.2153 43.0734 57.9888 42.3267 57.9979 41.3951C58.0071 39.8454 58.0211 38.2985 57.5852 36.3157ZM54.7024 29.9383C51.2746 25.0608 45.6742 22.0844 39.7047 22.0001C34.8011 21.9385 30.2688 23.7466 26.8938 27.1301C23.6334 30.3904 21.8777 34.7238 21.948 39.3363L21.9392 40.848C21.9744 41.786 22.7039 42.5594 23.6355 42.5876C23.6531 42.5946 23.6707 42.5946 23.6882 42.5946C24.539 42.5946 25.349 41.8654 25.3125 40.9514L25.3212 39.2906C25.3314 35.5985 26.7285 32.1251 29.3407 29.5165C32.0737 26.7919 35.7651 25.3244 39.7258 25.3772C44.6034 25.3842 49.1969 27.8817 52.0024 31.8719C52.5384 32.6362 53.5844 32.8211 54.3487 32.285C55.0539 31.7454 55.3 30.7047 54.7024 29.9383Z" fill="white"/>
<path opacity="0.4" d="M40.007 39.2968C39.0754 39.2968 38.3828 40.0527 38.3828 40.921C38.4619 46.0011 37.8116 50.8984 36.4316 55.7921C36.182 56.5445 36.5266 57.9999 37.9961 57.9999C38.7344 57.9999 39.4108 57.5165 39.6217 56.7695C40.5709 53.4036 41.7381 47.9523 41.6959 40.9843C41.6945 40.0562 40.9422 39.2968 40.007 39.2968ZM32.1672 32.1601C31.4359 31.5695 30.3813 31.6749 29.7836 32.3991C27.9941 34.614 27.0189 37.4195 27.0625 40.2741C27.1064 42.9193 26.8955 45.5736 26.4298 48.1562C26.2628 49.007 26.8691 49.9491 27.7833 50.1158C29.198 50.3619 29.6902 49.0702 29.6887 48.7538C30.1897 45.9505 30.427 43.0852 30.3742 40.2179C30.4094 38.1226 31.0844 36.1538 32.343 34.5366C32.9969 33.8054 32.8914 32.7507 32.1672 32.1601ZM39.7961 27.7754C38.7766 27.7494 37.6867 27.8724 36.6391 28.127C35.7341 28.2746 35.1716 29.1887 35.3826 30.1569C35.6023 31.0618 36.4443 31.6159 37.3584 31.4049C38.2 31.232 38.9945 31.1405 39.8172 31.1476C45.1166 31.2267 49.4922 35.4718 49.5836 40.6116C49.6188 43.2744 49.4869 45.8921 49.1882 48.5991C49.0827 49.5216 49.7506 50.2937 50.6732 50.4624C51.8509 50.5398 52.4661 49.6278 52.5364 48.9774C52.8616 46.1825 53.0022 43.37 52.9582 40.561C52.8391 33.6226 46.968 27.8809 39.7961 27.7754Z" fill="white"/>
</g>
<defs>
<clipPath id="clip0_885_528">
<rect width="36" height="36" fill="white" transform="translate(22 22)"/>
</clipPath>
</defs>
</svg>
