<svg width="565" height="565" viewBox="0 0 565 565" fill="none" xmlns="http://www.w3.org/2000/svg">
<circle cx="282.5" cy="282.5" r="282.5" fill="#E0F7FA"/>
<path d="M297.235 48.864V328.346" stroke="#263238" stroke-linecap="round" stroke-linejoin="round"/>
<g opacity="0.3">
<path opacity="0.3" d="M361.011 437.509H108.154C105.379 437.509 103.13 439.759 103.13 442.534V478.918C103.13 481.693 105.379 483.943 108.154 483.943H361.011C363.786 483.943 366.035 481.693 366.035 478.918V442.534C366.035 439.759 363.786 437.509 361.011 437.509Z" fill="white" stroke="black" stroke-linecap="round" stroke-linejoin="round"/>
<path opacity="0.3" d="M125.404 410.532H343.761C346.009 410.532 348.165 411.425 349.754 413.014C351.343 414.603 352.236 416.759 352.236 419.006V483.984H116.929V419.006C116.929 416.759 117.822 414.603 119.411 413.014C121.001 411.425 123.156 410.532 125.404 410.532Z" fill="white" stroke="black" stroke-linecap="round" stroke-linejoin="round"/>
<path opacity="0.3" d="M352.226 453.826H116.929V483.943H352.226V453.826Z" fill="white" stroke="black" stroke-linecap="round" stroke-linejoin="round"/>
<path opacity="0.3" d="M50.8843 484.129H532.044" stroke="black" stroke-linecap="round" stroke-linejoin="round"/>
</g>
<g opacity="0.3">
<path opacity="0.3" d="M518.41 410.532H404.305V483.943H518.41V410.532Z" fill="white" stroke="black" stroke-linecap="round" stroke-linejoin="round"/>
<path opacity="0.3" d="M458.177 416.913H408.926V441.591H458.177V416.913Z" fill="white" stroke="black" stroke-linecap="round" stroke-linejoin="round"/>
<path opacity="0.3" d="M512.702 416.913H463.45V441.591H512.702V416.913Z" fill="white" stroke="black" stroke-linecap="round" stroke-linejoin="round"/>
<path opacity="0.3" d="M458.177 447.393H408.926V472.07H458.177V447.393Z" fill="white" stroke="black" stroke-linecap="round" stroke-linejoin="round"/>
<path opacity="0.3" d="M512.702 447.393H463.45V472.07H512.702V447.393Z" fill="white" stroke="black" stroke-linecap="round" stroke-linejoin="round"/>
<path opacity="0.3" d="M518.41 404.575H404.305V410.532H518.41V404.575Z" fill="white" stroke="black" stroke-linecap="round" stroke-linejoin="round"/>
<path opacity="0.3" d="M460.311 365.072C459.862 363.886 458.986 362.911 457.856 362.336C456.726 361.762 455.422 361.629 454.199 361.964L450.511 357.82C450.648 357.345 450.643 356.841 450.495 356.369C450.348 355.898 450.065 355.48 449.682 355.168C449.438 354.897 449.141 354.678 448.81 354.525C448.479 354.371 448.12 354.287 447.755 354.277C447.013 354.285 446.304 354.586 445.783 355.113C445.261 355.641 444.968 356.353 444.968 357.095C444.966 357.449 445.029 357.8 445.155 358.131L422.57 378.934C422.227 378.761 421.85 378.663 421.466 378.647C421.082 378.631 420.699 378.697 420.343 378.84C419.758 379.063 419.265 379.475 418.941 380.01C418.617 380.546 418.481 381.174 418.555 381.795C418.629 382.416 418.908 382.995 419.348 383.439C419.788 383.884 420.364 384.169 420.985 384.248L424.31 397.271H417.576C417.012 397.271 416.454 397.382 415.933 397.598C415.412 397.815 414.938 398.131 414.54 398.531C414.141 398.93 413.826 399.404 413.611 399.926C413.396 400.447 413.286 401.006 413.287 401.57V404.865H439.436V401.57C439.436 400.43 438.983 399.336 438.177 398.53C437.37 397.724 436.277 397.271 435.137 397.271H426.476L423.026 383.741C423.39 383.483 423.686 383.141 423.89 382.744C424.094 382.347 424.199 381.908 424.196 381.462C424.197 381.108 424.134 380.757 424.01 380.426L446.553 359.664C446.941 359.852 447.366 359.951 447.797 359.954C448.304 359.951 448.801 359.811 449.237 359.55L452.345 362.948C451.518 363.624 450.925 364.543 450.649 365.575C450.374 366.607 450.431 367.7 450.811 368.698L453.028 374.458L462.57 370.791L460.311 365.072Z" fill="black" stroke="black" stroke-miterlimit="10"/>
</g>
<g opacity="0.3">
<path opacity="0.3" d="M94.9556 421.202C94.9556 421.202 95.5358 418.737 95.5565 418.571C95.743 416.716 95.0282 412.997 93.1012 412.148C92.778 412.018 92.4313 411.957 92.0833 411.97C91.7353 411.982 91.3938 412.067 91.0806 412.219C90.7674 412.372 90.4895 412.588 90.2648 412.854C90.0401 413.12 89.8734 413.43 89.7756 413.764C89.6282 414.505 89.6446 415.269 89.8235 416.002C90.0025 416.736 90.3398 417.422 90.8116 418.011C91.7648 419.348 94.9556 421.202 94.9556 421.202Z" fill="black"/>
<path opacity="0.3" d="M57.7011 421.71C59.2344 422.311 62.8811 422.104 62.8811 422.104C62.8811 422.104 62.0005 419.721 61.928 419.576C61.0578 417.918 58.4056 415.214 56.344 415.566C56.0091 415.64 55.6931 415.783 55.4157 415.984C55.1382 416.186 54.9052 416.442 54.7312 416.738C54.5573 417.033 54.446 417.361 54.4044 417.702C54.3628 418.042 54.3918 418.387 54.4895 418.716C54.7729 419.42 55.2074 420.053 55.7624 420.57C56.3174 421.087 56.9792 421.477 57.7011 421.71Z" fill="black"/>
<path opacity="0.3" d="M59.3483 432.329C60.9127 432.495 64.1657 431.428 64.4247 431.345C65.0375 433.202 65.7677 435.019 66.6107 436.784C67.0976 437.82 67.6467 438.856 68.1647 439.892C67.8539 439.467 67.5638 439.084 67.5224 439.042C66.2481 437.664 62.9743 435.758 61.0681 436.649C60.757 436.806 60.4823 437.026 60.2618 437.296C60.0413 437.565 59.8799 437.878 59.7881 438.214C59.6963 438.55 59.6761 438.902 59.7289 439.246C59.7816 439.59 59.9061 439.92 60.0942 440.213C60.556 440.811 61.1431 441.301 61.8142 441.648C62.4853 441.995 63.2243 442.191 63.9792 442.223C65.6618 442.164 67.3252 441.846 68.9106 441.28C69.1282 441.674 69.325 442.067 69.5426 442.451C70.5786 444.315 71.6146 446.16 72.5366 448.014C72.8681 448.656 73.1686 449.309 73.4794 449.962C73.1996 449.589 72.9614 449.268 72.9199 449.226C71.6456 447.848 68.3719 445.952 66.476 446.833C66.1649 446.99 65.8902 447.21 65.6697 447.48C65.4492 447.749 65.2879 448.062 65.196 448.398C65.1042 448.734 65.084 449.086 65.1368 449.43C65.1895 449.774 65.314 450.104 65.5022 450.397C65.9628 450.994 66.5482 451.483 67.2174 451.83C67.8867 452.177 68.6236 452.374 69.3768 452.407C71.0161 452.356 72.6376 452.052 74.1838 451.505C74.4739 452.189 74.7744 452.862 75.0334 453.577C75.1888 454.044 75.3856 454.468 75.5203 454.945C75.655 455.421 75.8207 455.867 75.9658 456.323C76.204 457.214 76.4734 458.125 76.691 459.006C76.8464 459.607 76.981 460.187 77.1261 460.767C76.7946 460.125 76.0901 458.861 76.0901 458.757C75.0541 457.203 72.0911 454.831 70.0813 455.421C69.7583 455.529 69.4606 455.701 69.2065 455.927C68.9524 456.153 68.7472 456.429 68.6036 456.738C68.46 457.046 68.381 457.381 68.3715 457.721C68.3619 458.061 68.422 458.4 68.548 458.716C68.9142 459.376 69.4201 459.947 70.0303 460.391C70.6405 460.835 71.3403 461.14 72.0808 461.285C73.8076 461.479 75.5536 461.412 77.2608 461.088C77.4887 462.052 77.7062 462.995 77.8927 463.886C78.5558 466.994 78.9805 469.573 79.2602 471.397L80.6796 471.345V471.179C80.3688 469.345 79.8715 466.724 79.1359 463.616C78.908 462.632 78.649 461.544 78.3589 460.508C79.3283 460.085 80.2695 459.601 81.1768 459.058C82.4775 460.102 83.9176 460.96 85.4555 461.606C85.1136 462.539 84.7718 463.44 84.4195 464.29C83.2592 467.232 82.1818 469.635 81.4151 471.303H82.9691C83.684 469.646 84.606 467.429 85.5798 464.787C85.9321 463.844 86.2843 462.818 86.6158 461.772C88.3211 462.11 90.0683 462.184 91.7958 461.99C92.5372 461.847 93.2385 461.544 93.8505 461.102C94.4625 460.66 94.9705 460.09 95.339 459.431C95.487 459.106 95.5635 458.754 95.5634 458.397C95.5632 458.041 95.4863 457.688 95.3379 457.364C95.1895 457.04 94.9731 456.751 94.7034 456.518C94.4337 456.285 94.1169 456.112 93.7746 456.012C91.7648 455.411 88.8122 457.784 87.7554 459.327C87.6933 459.42 87.1235 460.477 86.7816 461.161L87.2064 459.866C87.4964 458.996 87.7554 458.115 88.0352 457.162L88.4081 455.763C88.5324 455.297 88.6153 454.789 88.7293 454.292C88.9572 453.153 89.1333 451.982 89.2887 450.801C90.8644 451.363 92.517 451.681 94.189 451.744C94.939 451.72 95.6748 451.533 96.3456 451.197C97.0164 450.861 97.6061 450.383 98.074 449.796C98.2662 449.505 98.3945 449.177 98.4505 448.833C98.5064 448.489 98.4888 448.136 98.3987 447.8C98.3087 447.463 98.1482 447.149 97.9279 446.879C97.7077 446.609 97.4326 446.388 97.1209 446.232C95.2146 445.331 91.9409 447.268 90.6666 448.594C90.5837 448.677 89.7756 449.754 89.3405 450.366C89.4234 449.651 89.5166 448.936 89.5788 448.221C89.7653 446.149 89.8896 444.015 90.0139 441.902C90.0139 441.249 90.1072 440.607 90.1486 439.964C90.418 440.047 93.6503 441.125 95.225 441C95.9783 440.971 96.7162 440.778 97.3872 440.435C98.0582 440.091 98.6462 439.605 99.11 439.011C99.3002 438.719 99.4265 438.39 99.4809 438.046C99.5352 437.702 99.5163 437.35 99.4254 437.014C99.3345 436.677 99.1735 436.364 98.9532 436.094C98.7328 435.824 98.4579 435.604 98.1465 435.447C96.2506 434.546 92.9665 436.483 91.6922 437.809C91.599 437.913 90.4387 439.467 90.159 439.881C90.2626 438.462 90.3662 437.043 90.5423 435.655C90.7709 433.773 91.117 431.908 91.5783 430.07C91.713 430.122 95.08 431.252 96.6858 431.106C97.4391 431.078 98.177 430.885 98.848 430.541C99.519 430.198 100.107 429.712 100.571 429.117C100.78 428.824 100.923 428.488 100.988 428.133C101.054 427.778 101.042 427.414 100.952 427.064C100.862 426.715 100.697 426.39 100.469 426.111C100.24 425.832 99.953 425.606 99.628 425.45C97.7321 424.549 94.448 426.486 93.1737 427.812C93.0908 427.895 92.1999 429.086 91.7958 429.666L91.6819 429.615C92.211 427.778 92.9044 425.992 93.7539 424.279C94.1994 423.326 94.6759 422.446 95.1525 421.596C96.6842 422.339 98.3185 422.849 100.001 423.109C100.753 423.162 101.509 423.051 102.214 422.783C102.919 422.514 103.557 422.095 104.083 421.555C104.304 421.286 104.466 420.973 104.558 420.637C104.65 420.302 104.671 419.95 104.618 419.606C104.565 419.262 104.44 418.933 104.252 418.64C104.063 418.348 103.815 418.098 103.523 417.908C101.741 416.81 98.2708 418.322 96.8515 419.545C96.7686 419.607 96.0538 420.374 95.5462 420.933C95.7741 420.55 95.9916 420.156 96.2196 419.793C97.0484 418.447 97.8979 417.255 98.6438 416.209C99.0789 415.618 99.483 415.1 99.8663 414.613C101.563 414.571 103.243 414.27 104.849 413.722C105.541 413.422 106.159 412.975 106.66 412.411C107.162 411.848 107.533 411.181 107.75 410.459C107.822 410.119 107.821 409.768 107.748 409.428C107.675 409.088 107.531 408.768 107.325 408.487C107.12 408.207 106.858 407.973 106.557 407.8C106.255 407.628 105.92 407.52 105.575 407.486C103.503 407.33 101.099 410.273 100.395 412.013C100.332 412.158 99.6487 414.624 99.6902 414.613C99.3172 415.08 98.9132 415.577 98.4884 416.136C97.7114 417.172 96.8412 418.333 95.9709 419.669C95.0271 421.104 94.1658 422.591 93.3913 424.124C92.5197 425.835 91.802 427.621 91.2468 429.459C91.2481 429.483 91.2481 429.508 91.2468 429.532C91.2468 428.921 91.1535 427.201 91.1224 427.066C90.822 425.222 89.1437 421.834 87.0717 421.523C86.7252 421.481 86.3737 421.513 86.04 421.615C85.7064 421.718 85.3981 421.889 85.1352 422.119C84.8723 422.349 84.6607 422.631 84.5142 422.948C84.3677 423.265 84.2895 423.609 84.2848 423.958C84.3414 424.711 84.5617 425.442 84.9303 426.1C85.2989 426.759 85.807 427.329 86.419 427.771C87.6311 428.807 90.9256 429.677 91.195 429.749C90.6741 431.638 90.2796 433.558 90.0139 435.499C89.8585 436.628 89.7238 437.768 89.6202 438.908C89.6202 438.379 89.5581 437.872 89.5477 437.872C89.2473 436.027 87.569 432.629 85.4866 432.319C85.1412 432.28 84.7914 432.313 84.4597 432.417C84.128 432.521 83.8217 432.693 83.5603 432.922C83.299 433.152 83.0884 433.433 82.9419 433.748C82.7955 434.063 82.7166 434.406 82.7101 434.753C82.7693 435.507 82.9906 436.238 83.359 436.898C83.7274 437.558 84.234 438.13 84.8443 438.576C86.26 439.433 87.7967 440.072 89.4027 440.472L89.268 441.798C89.0919 443.87 88.9261 446.025 88.6982 448.087C88.6153 448.812 88.5117 449.527 88.4081 450.241C88.4081 449.775 88.4081 449.371 88.4081 449.319C88.0973 447.465 86.419 444.077 84.347 443.766C84.001 443.724 83.65 443.755 83.3169 443.858C82.9838 443.961 82.6761 444.133 82.414 444.362C82.1519 444.592 81.9413 444.875 81.7959 445.192C81.6506 445.508 81.5738 445.852 81.5705 446.201C81.6197 446.949 81.8304 447.676 82.1881 448.335C82.5458 448.993 83.042 449.566 83.6425 450.013C85.0353 450.882 86.5562 451.525 88.1491 451.92C88.0144 452.645 87.8901 453.38 87.7347 454.075C87.6208 454.551 87.5379 455.017 87.3928 455.484C87.2478 455.95 87.1235 456.426 86.9992 456.882C86.7091 457.763 86.419 458.664 86.1289 459.514C85.9217 460.104 85.7145 460.664 85.5073 461.233C85.6006 460.508 85.7456 459.089 85.7352 458.965C85.6593 457.318 85.1597 455.72 84.2848 454.323C84.2825 454.139 84.2652 453.955 84.233 453.774C84.1773 453.43 84.0497 453.102 83.8585 452.811C83.6674 452.52 83.4169 452.273 83.1236 452.085C82.8303 451.897 82.5007 451.773 82.1563 451.722C81.8119 451.67 81.4605 451.692 81.125 451.785C79.1152 452.396 77.9549 455.991 77.9238 457.866C77.9238 457.98 78.0378 459.182 78.1206 459.938C78.0067 459.503 77.8927 459.068 77.7684 458.623C77.5301 457.732 77.2504 456.851 76.9707 455.908L76.5045 454.541C76.3491 454.075 76.1419 453.608 75.9658 453.142C75.5203 452.054 75.023 450.977 74.4946 449.91C76.1229 449.508 77.6808 448.862 79.1152 447.993C79.7259 447.553 80.2332 446.984 80.6018 446.328C80.9704 445.671 81.1914 444.942 81.2494 444.191C81.249 443.842 81.1746 443.497 81.0311 443.179C80.8875 442.861 80.6781 442.577 80.4166 442.346C80.1552 442.115 79.8476 441.942 79.5143 441.839C79.181 441.735 78.8296 441.704 78.4832 441.746C76.4112 442.047 74.7122 445.424 74.4014 447.278C74.4014 447.392 74.3082 448.739 74.2771 449.485C73.9559 448.843 73.6451 448.2 73.2929 447.558C72.2569 445.714 71.2209 443.88 70.1849 442.047L69.2214 440.358C69.5011 440.285 72.7956 439.394 74.0077 438.4C74.6203 437.96 75.1296 437.393 75.5 436.736C75.8704 436.079 76.093 435.349 76.1522 434.598C76.1428 434.253 76.062 433.914 75.915 433.602C75.768 433.29 75.5579 433.012 75.298 432.785C75.0382 432.558 74.7341 432.388 74.405 432.284C74.076 432.181 73.729 432.147 73.3861 432.184C71.3141 432.484 69.6151 435.872 69.3043 437.716C69.3043 437.861 69.1696 439.788 69.1696 440.296C68.4651 439.053 67.7814 437.82 67.0976 436.566C66.24 434.891 65.4959 433.161 64.8702 431.386C64.9945 431.386 68.434 430.443 69.6772 429.418C70.2899 428.978 70.7992 428.41 71.1696 427.754C71.54 427.097 71.7625 426.367 71.8218 425.616C71.8198 425.267 71.7443 424.923 71.6002 424.606C71.4561 424.289 71.2467 424.005 70.9856 423.774C70.7245 423.544 70.4176 423.371 70.0851 423.267C69.7525 423.163 69.4017 423.13 69.0556 423.171C66.9836 423.471 65.2846 426.859 64.9738 428.703C64.9738 428.827 64.8702 430.309 64.8495 431.013H64.7252C64.1363 429.201 63.7132 427.339 63.4612 425.45C63.3058 424.414 63.223 423.378 63.1504 422.446C64.8392 422.227 66.4848 421.752 68.03 421.037C68.7043 420.663 69.2868 420.144 69.7348 419.516C70.1829 418.889 70.4853 418.17 70.62 417.411C70.6564 417.064 70.6194 416.714 70.5114 416.383C70.4034 416.052 70.2268 415.748 69.9931 415.49C69.7595 415.232 69.474 415.026 69.1554 414.885C68.8367 414.745 68.4921 414.674 68.144 414.676C66.072 414.748 64 417.929 63.4716 419.731C63.4716 419.824 63.2748 420.85 63.1608 421.606C63.1608 421.161 63.0986 420.705 63.0883 420.291C63.0365 418.706 63.0883 417.245 63.0883 415.96C63.0883 415.225 63.1712 414.562 63.223 413.94C64.638 412.97 65.8929 411.785 66.9422 410.428C67.3557 409.797 67.6264 409.084 67.7356 408.338C67.8447 407.592 67.7896 406.83 67.5742 406.108C67.4443 405.784 67.2482 405.491 66.9984 405.248C66.7486 405.005 66.4506 404.817 66.1237 404.696C65.7967 404.575 65.4481 404.524 65.1002 404.546C64.7522 404.568 64.4127 404.662 64.1036 404.823C62.2802 405.859 61.9176 409.62 62.2906 411.454C62.2906 411.609 63.1194 414.033 63.1504 414.012C63.0883 414.603 63.0365 415.245 62.9847 415.939C62.9018 417.224 62.8189 418.685 62.8396 420.28C62.8362 422.011 62.9365 423.741 63.1401 425.46C63.3574 427.37 63.7458 429.256 64.3004 431.096C64.2959 431.117 64.2959 431.138 64.3004 431.158C63.9482 430.651 62.9329 429.273 62.8396 429.169C61.5654 427.802 58.2916 425.895 56.3957 426.786C56.0846 426.943 55.81 427.163 55.5895 427.433C55.369 427.703 55.2076 428.016 55.1158 428.352C55.024 428.688 55.0038 429.039 55.0565 429.383C55.1092 429.728 55.2337 430.057 55.4219 430.35C55.8912 430.948 56.4862 431.435 57.1647 431.777C57.8433 432.119 58.5888 432.307 59.3483 432.329Z" fill="black"/>
<path opacity="0.3" d="M57.7011 421.71C59.2344 422.311 62.8811 422.104 62.8811 422.104C62.8811 422.104 62.0005 419.721 61.928 419.576C61.0578 417.918 58.4056 415.214 56.344 415.566C56.0091 415.64 55.6931 415.783 55.4157 415.984C55.1382 416.186 54.9052 416.442 54.7312 416.738C54.5573 417.033 54.446 417.361 54.4044 417.702C54.3628 418.042 54.3918 418.387 54.4895 418.716C54.7729 419.42 55.2074 420.053 55.7624 420.57C56.3174 421.087 56.9792 421.477 57.7011 421.71Z" fill="black"/>
<path opacity="0.3" d="M94.9556 421.202C94.9556 421.202 95.5358 418.737 95.5565 418.571C95.743 416.716 95.0282 412.997 93.1012 412.148C92.778 412.018 92.4313 411.957 92.0833 411.97C91.7353 411.982 91.3938 412.067 91.0806 412.219C90.7674 412.372 90.4895 412.588 90.2648 412.854C90.0401 413.12 89.8734 413.43 89.7756 413.764C89.6282 414.505 89.6446 415.269 89.8235 416.002C90.0025 416.736 90.3398 417.422 90.8116 418.011C91.7648 419.348 94.9556 421.202 94.9556 421.202Z" fill="black"/>
<path opacity="0.3" d="M59.3483 432.329C60.9127 432.495 64.1657 431.428 64.4247 431.345C65.0375 433.202 65.7677 435.019 66.6107 436.784C67.0976 437.82 67.6467 438.856 68.1647 439.892C67.8539 439.467 67.5638 439.084 67.5224 439.042C66.2481 437.664 62.9743 435.758 61.0681 436.649C60.757 436.806 60.4823 437.026 60.2618 437.296C60.0413 437.565 59.8799 437.878 59.7881 438.214C59.6963 438.55 59.6761 438.902 59.7289 439.246C59.7816 439.59 59.9061 439.92 60.0942 440.213C60.556 440.811 61.1431 441.301 61.8142 441.648C62.4853 441.995 63.2243 442.191 63.9792 442.223C65.6618 442.164 67.3252 441.846 68.9106 441.28C69.1282 441.674 69.325 442.067 69.5426 442.451C70.5786 444.315 71.6146 446.16 72.5366 448.014C72.8681 448.656 73.1686 449.309 73.4794 449.962C73.1996 449.589 72.9614 449.268 72.9199 449.226C71.6456 447.848 68.3719 445.952 66.476 446.833C66.1649 446.99 65.8902 447.21 65.6697 447.48C65.4492 447.749 65.2879 448.062 65.196 448.398C65.1042 448.734 65.084 449.086 65.1368 449.43C65.1895 449.774 65.314 450.104 65.5022 450.397C65.9628 450.994 66.5482 451.483 67.2174 451.83C67.8867 452.177 68.6236 452.374 69.3768 452.407C71.0161 452.356 72.6376 452.052 74.1838 451.505C74.4739 452.189 74.7744 452.862 75.0334 453.577C75.1888 454.044 75.3856 454.468 75.5203 454.945C75.655 455.421 75.8207 455.867 75.9658 456.323C76.204 457.214 76.4734 458.125 76.691 459.006C76.8464 459.607 76.981 460.187 77.1261 460.767C76.7946 460.125 76.0901 458.861 76.0901 458.757C75.0541 457.203 72.0911 454.831 70.0813 455.421C69.7583 455.529 69.4606 455.701 69.2065 455.927C68.9524 456.153 68.7472 456.429 68.6036 456.738C68.46 457.046 68.381 457.381 68.3715 457.721C68.3619 458.061 68.422 458.4 68.548 458.716C68.9142 459.376 69.4201 459.947 70.0303 460.391C70.6405 460.835 71.3403 461.14 72.0808 461.285C73.8076 461.479 75.5536 461.412 77.2608 461.088C77.4887 462.052 77.7062 462.995 77.8927 463.886C78.5558 466.994 78.9805 469.573 79.2602 471.397L80.6796 471.345V471.179C80.3688 469.345 79.8715 466.724 79.1359 463.616C78.908 462.632 78.649 461.544 78.3589 460.508C79.3283 460.085 80.2695 459.601 81.1768 459.058C82.4775 460.102 83.9176 460.96 85.4555 461.606C85.1136 462.539 84.7718 463.44 84.4195 464.29C83.2592 467.232 82.1818 469.635 81.4151 471.303H82.9691C83.684 469.646 84.606 467.429 85.5798 464.787C85.9321 463.844 86.2843 462.818 86.6158 461.772C88.3211 462.11 90.0683 462.184 91.7958 461.99C92.5372 461.847 93.2385 461.544 93.8505 461.102C94.4625 460.66 94.9705 460.09 95.339 459.431C95.487 459.106 95.5635 458.754 95.5634 458.397C95.5632 458.041 95.4863 457.688 95.3379 457.364C95.1895 457.04 94.9731 456.751 94.7034 456.518C94.4337 456.285 94.1169 456.112 93.7746 456.012C91.7648 455.411 88.8122 457.784 87.7554 459.327C87.6933 459.42 87.1235 460.477 86.7816 461.161L87.2064 459.866C87.4964 458.996 87.7554 458.115 88.0352 457.162L88.4081 455.763C88.5324 455.297 88.6153 454.789 88.7293 454.292C88.9572 453.153 89.1333 451.982 89.2887 450.801C90.8644 451.363 92.517 451.681 94.189 451.744C94.939 451.72 95.6748 451.533 96.3456 451.197C97.0164 450.861 97.6061 450.383 98.074 449.796C98.2662 449.505 98.3945 449.177 98.4505 448.833C98.5064 448.489 98.4888 448.136 98.3987 447.8C98.3087 447.463 98.1482 447.149 97.9279 446.879C97.7077 446.609 97.4326 446.388 97.1209 446.232C95.2146 445.331 91.9409 447.268 90.6666 448.594C90.5837 448.677 89.7756 449.754 89.3405 450.366C89.4234 449.651 89.5166 448.936 89.5788 448.221C89.7653 446.149 89.8896 444.015 90.0139 441.902C90.0139 441.249 90.1072 440.607 90.1486 439.964C90.418 440.047 93.6503 441.125 95.225 441C95.9783 440.971 96.7162 440.778 97.3872 440.435C98.0582 440.091 98.6462 439.605 99.11 439.011C99.3002 438.719 99.4265 438.39 99.4809 438.046C99.5352 437.702 99.5163 437.35 99.4254 437.014C99.3345 436.677 99.1735 436.364 98.9532 436.094C98.7328 435.824 98.4579 435.604 98.1465 435.447C96.2506 434.546 92.9665 436.483 91.6922 437.809C91.599 437.913 90.4387 439.467 90.159 439.881C90.2626 438.462 90.3662 437.043 90.5423 435.655C90.7709 433.773 91.117 431.908 91.5783 430.07C91.713 430.122 95.08 431.252 96.6858 431.106C97.4391 431.078 98.177 430.885 98.848 430.541C99.519 430.198 100.107 429.712 100.571 429.117C100.78 428.824 100.923 428.488 100.988 428.133C101.054 427.778 101.042 427.414 100.952 427.064C100.862 426.715 100.697 426.39 100.469 426.111C100.24 425.832 99.953 425.606 99.628 425.45C97.7321 424.549 94.448 426.486 93.1737 427.812C93.0908 427.895 92.1999 429.086 91.7958 429.666L91.6819 429.615C92.211 427.778 92.9044 425.992 93.7539 424.279C94.1994 423.326 94.6759 422.446 95.1525 421.596C96.6842 422.339 98.3185 422.849 100.001 423.109C100.753 423.162 101.509 423.051 102.214 422.783C102.919 422.514 103.557 422.095 104.083 421.555C104.304 421.286 104.466 420.973 104.558 420.637C104.65 420.302 104.671 419.95 104.618 419.606C104.565 419.262 104.44 418.933 104.252 418.64C104.063 418.348 103.815 418.098 103.523 417.908C101.741 416.81 98.2708 418.322 96.8515 419.545C96.7686 419.607 96.0538 420.374 95.5462 420.933C95.7741 420.55 95.9916 420.156 96.2196 419.793C97.0484 418.447 97.8979 417.255 98.6438 416.209C99.0789 415.618 99.483 415.1 99.8663 414.613C101.563 414.571 103.243 414.27 104.849 413.722C105.541 413.422 106.159 412.975 106.66 412.411C107.162 411.848 107.533 411.181 107.75 410.459C107.822 410.119 107.821 409.768 107.748 409.428C107.675 409.088 107.531 408.768 107.325 408.487C107.12 408.207 106.858 407.973 106.557 407.8C106.255 407.628 105.92 407.52 105.575 407.486C103.503 407.33 101.099 410.273 100.395 412.013C100.332 412.158 99.6487 414.624 99.6902 414.613C99.3172 415.08 98.9132 415.577 98.4884 416.136C97.7114 417.172 96.8412 418.333 95.9709 419.669C95.0271 421.104 94.1658 422.591 93.3913 424.124C92.5197 425.835 91.802 427.621 91.2468 429.459C91.2481 429.483 91.2481 429.508 91.2468 429.532C91.2468 428.921 91.1535 427.201 91.1224 427.066C90.822 425.222 89.1437 421.834 87.0717 421.523C86.7252 421.481 86.3737 421.513 86.04 421.615C85.7064 421.718 85.3981 421.889 85.1352 422.119C84.8723 422.349 84.6607 422.631 84.5142 422.948C84.3677 423.265 84.2895 423.609 84.2848 423.958C84.3414 424.711 84.5617 425.442 84.9303 426.1C85.2989 426.759 85.807 427.329 86.419 427.771C87.6311 428.807 90.9256 429.677 91.195 429.749C90.6741 431.638 90.2796 433.558 90.0139 435.499C89.8585 436.628 89.7238 437.768 89.6202 438.908C89.6202 438.379 89.5581 437.872 89.5477 437.872C89.2473 436.027 87.569 432.629 85.4866 432.319C85.1412 432.28 84.7914 432.313 84.4597 432.417C84.128 432.521 83.8217 432.693 83.5603 432.922C83.299 433.152 83.0884 433.433 82.9419 433.748C82.7955 434.063 82.7166 434.406 82.7101 434.753C82.7693 435.507 82.9906 436.238 83.359 436.898C83.7274 437.558 84.234 438.13 84.8443 438.576C86.26 439.433 87.7967 440.072 89.4027 440.472L89.268 441.798C89.0919 443.87 88.9261 446.025 88.6982 448.087C88.6153 448.812 88.5117 449.527 88.4081 450.241C88.4081 449.775 88.4081 449.371 88.4081 449.319C88.0973 447.465 86.419 444.077 84.347 443.766C84.001 443.724 83.65 443.755 83.3169 443.858C82.9838 443.961 82.6761 444.133 82.414 444.362C82.1519 444.592 81.9413 444.875 81.7959 445.192C81.6506 445.508 81.5738 445.852 81.5705 446.201C81.6197 446.949 81.8304 447.676 82.1881 448.335C82.5458 448.993 83.042 449.566 83.6425 450.013C85.0353 450.882 86.5562 451.525 88.1491 451.92C88.0144 452.645 87.8901 453.38 87.7347 454.075C87.6208 454.551 87.5379 455.017 87.3928 455.484C87.2478 455.95 87.1235 456.426 86.9992 456.882C86.7091 457.763 86.419 458.664 86.1289 459.514C85.9217 460.104 85.7145 460.664 85.5073 461.233C85.6006 460.508 85.7456 459.089 85.7352 458.965C85.6593 457.318 85.1597 455.72 84.2848 454.323C84.2825 454.139 84.2652 453.955 84.233 453.774C84.1773 453.43 84.0497 453.102 83.8585 452.811C83.6674 452.52 83.4169 452.273 83.1236 452.085C82.8303 451.897 82.5007 451.773 82.1563 451.722C81.8119 451.67 81.4605 451.692 81.125 451.785C79.1152 452.396 77.9549 455.991 77.9238 457.866C77.9238 457.98 78.0378 459.182 78.1206 459.938C78.0067 459.503 77.8927 459.068 77.7684 458.623C77.5301 457.732 77.2504 456.851 76.9707 455.908L76.5045 454.541C76.3491 454.075 76.1419 453.608 75.9658 453.142C75.5203 452.054 75.023 450.977 74.4946 449.91C76.1229 449.508 77.6808 448.862 79.1152 447.993C79.7259 447.553 80.2332 446.984 80.6018 446.328C80.9704 445.671 81.1914 444.942 81.2494 444.191C81.249 443.842 81.1746 443.497 81.0311 443.179C80.8875 442.861 80.6781 442.577 80.4166 442.346C80.1552 442.115 79.8476 441.942 79.5143 441.839C79.181 441.735 78.8296 441.704 78.4832 441.746C76.4112 442.047 74.7122 445.424 74.4014 447.278C74.4014 447.392 74.3082 448.739 74.2771 449.485C73.9559 448.843 73.6451 448.2 73.2929 447.558C72.2569 445.714 71.2209 443.88 70.1849 442.047L69.2214 440.358C69.5011 440.285 72.7956 439.394 74.0077 438.4C74.6203 437.96 75.1296 437.393 75.5 436.736C75.8704 436.079 76.093 435.349 76.1522 434.598C76.1428 434.253 76.062 433.914 75.915 433.602C75.768 433.29 75.5579 433.012 75.298 432.785C75.0382 432.558 74.7341 432.388 74.405 432.284C74.076 432.181 73.729 432.147 73.3861 432.184C71.3141 432.484 69.6151 435.872 69.3043 437.716C69.3043 437.861 69.1696 439.788 69.1696 440.296C68.4651 439.053 67.7814 437.82 67.0976 436.566C66.24 434.891 65.4959 433.161 64.8702 431.386C64.9945 431.386 68.434 430.443 69.6772 429.418C70.2899 428.978 70.7992 428.41 71.1696 427.754C71.54 427.097 71.7625 426.367 71.8218 425.616C71.8198 425.267 71.7443 424.923 71.6002 424.606C71.4561 424.289 71.2467 424.005 70.9856 423.774C70.7245 423.544 70.4176 423.371 70.0851 423.267C69.7525 423.163 69.4017 423.13 69.0556 423.171C66.9836 423.471 65.2846 426.859 64.9738 428.703C64.9738 428.827 64.8702 430.309 64.8495 431.013H64.7252C64.1363 429.201 63.7132 427.339 63.4612 425.45C63.3058 424.414 63.223 423.378 63.1504 422.446C64.8392 422.227 66.4848 421.752 68.03 421.037C68.7043 420.663 69.2868 420.144 69.7348 419.516C70.1829 418.889 70.4853 418.17 70.62 417.411C70.6564 417.064 70.6194 416.714 70.5114 416.383C70.4034 416.052 70.2268 415.748 69.9931 415.49C69.7595 415.232 69.474 415.026 69.1554 414.885C68.8367 414.745 68.4921 414.674 68.144 414.676C66.072 414.748 64 417.929 63.4716 419.731C63.4716 419.824 63.2748 420.85 63.1608 421.606C63.1608 421.161 63.0986 420.705 63.0883 420.291C63.0365 418.706 63.0883 417.245 63.0883 415.96C63.0883 415.225 63.1712 414.562 63.223 413.94C64.638 412.97 65.8929 411.785 66.9422 410.428C67.3557 409.797 67.6264 409.084 67.7356 408.338C67.8447 407.592 67.7896 406.83 67.5742 406.108C67.4443 405.784 67.2482 405.491 66.9984 405.248C66.7486 405.005 66.4506 404.817 66.1237 404.696C65.7967 404.575 65.4481 404.524 65.1002 404.546C64.7522 404.568 64.4127 404.662 64.1036 404.823C62.2802 405.859 61.9176 409.62 62.2906 411.454C62.2906 411.609 63.1194 414.033 63.1504 414.012C63.0883 414.603 63.0365 415.245 62.9847 415.939C62.9018 417.224 62.8189 418.685 62.8396 420.28C62.8362 422.011 62.9365 423.741 63.1401 425.46C63.3574 427.37 63.7458 429.256 64.3004 431.096C64.2959 431.117 64.2959 431.138 64.3004 431.158C63.9482 430.651 62.9329 429.273 62.8396 429.169C61.5654 427.802 58.2916 425.895 56.3957 426.786C56.0846 426.943 55.81 427.163 55.5895 427.433C55.369 427.703 55.2076 428.016 55.1158 428.352C55.024 428.688 55.0038 429.039 55.0565 429.383C55.1092 429.728 55.2337 430.057 55.4219 430.35C55.8912 430.948 56.4862 431.435 57.1647 431.777C57.8433 432.119 58.5888 432.307 59.3483 432.329Z" fill="black"/>
<path opacity="0.3" d="M86.0772 469.469H76.4216V483.942H86.0772V469.469Z" fill="black"/>
</g>
<path d="M481.912 159.54H459.12V170.936H481.912V159.54Z" stroke="#B2B2B2" stroke-linecap="round" stroke-linejoin="round"/>
<path d="M511.303 159.54H488.511V170.936H511.303V159.54Z" stroke="#B2B2B2" stroke-linecap="round" stroke-linejoin="round"/>
<path d="M496.302 173.94H473.51V185.336H496.302V173.94Z" stroke="#B2B2B2" stroke-linecap="round" stroke-linejoin="round"/>
<path d="M496.302 143.938H473.51V155.334H496.302V143.938Z" stroke="#B2B2B2" stroke-linecap="round" stroke-linejoin="round"/>
<path d="M481.912 202.13H459.12V213.526H481.912V202.13Z" stroke="#B2B2B2" stroke-linecap="round" stroke-linejoin="round"/>
<path d="M511.303 202.13H488.511V213.526H511.303V202.13Z" stroke="#B2B2B2" stroke-linecap="round" stroke-linejoin="round"/>
<path d="M511.303 80.9802H488.511V92.3762H511.303V80.9802Z" stroke="#B2B2B2" stroke-linecap="round" stroke-linejoin="round"/>
<path d="M483.331 118.276H460.539V129.672H483.331V118.276Z" stroke="#B2B2B2" stroke-linecap="round" stroke-linejoin="round"/>
<path d="M460.156 92.3762H437.364V103.772H460.156V92.3762Z" stroke="#B2B2B2" stroke-linecap="round" stroke-linejoin="round"/>
<path d="M444.471 74.5776H421.679V85.9736H444.471V74.5776Z" stroke="#B2B2B2" stroke-linecap="round" stroke-linejoin="round"/>
<path d="M496.302 216.53H473.51V227.926H496.302V216.53Z" stroke="#B2B2B2" stroke-linecap="round" stroke-linejoin="round"/>
<path d="M357.478 241.612H334.686V253.008H357.478V241.612Z" stroke="#B2B2B2" stroke-linecap="round" stroke-linejoin="round"/>
<path d="M386.869 241.612H364.077V253.008H386.869V241.612Z" stroke="#B2B2B2" stroke-linecap="round" stroke-linejoin="round"/>
<path d="M414.354 256.012H391.562V267.408H414.354V256.012Z" stroke="#B2B2B2" stroke-linecap="round" stroke-linejoin="round"/>
<path d="M422.705 91.3711H315.676V232.008H422.705V91.3711Z" stroke="#B2B2B2" stroke-linecap="round" stroke-linejoin="round"/>
<path d="M384.963 91.3401H363.01L315.676 138.675V175.039L362.679 128.035L362.327 113.977L384.963 91.3401ZM422.705 91.3401H421.327L336.261 176.406L353.448 193.583L315.707 231.324V232.008H343.088L388.672 186.424H369.195L355.644 172.873L422.705 105.813V91.3401ZM422.705 120.493L368.988 174.22L384.248 174.386L422.674 212.811V195.303L388.879 161.519L422.674 127.724L422.705 120.493ZM395.924 195.645L359.56 232.008H385.637L408.957 208.677L395.924 195.645ZM315.676 91.3401V107.149L331.454 91.3401H315.676Z" stroke="#B2B2B2" stroke-linecap="round" stroke-linejoin="round"/>
<g opacity="0.3">
<path opacity="0.3" d="M275.748 73.0442H117.24V275.396H275.748V73.0442Z" stroke="black" stroke-linecap="round" stroke-linejoin="round"/>
<path opacity="0.3" d="M269.532 80.98H123.456V267.46H269.532V80.98Z" stroke="black" stroke-linecap="round" stroke-linejoin="round"/>
<path opacity="0.3" d="M269.532 173.184H123.456V183.544H269.532V173.184Z" stroke="black" stroke-linecap="round" stroke-linejoin="round"/>
<path opacity="0.3" d="M263.554 90.822L233.23 121.135" stroke="black" stroke-linecap="round" stroke-linejoin="round"/>
<path opacity="0.3" d="M223.026 141.254L218.385 145.896" stroke="black" stroke-linecap="round" stroke-linejoin="round"/>
<path opacity="0.3" d="M242.513 121.757L227.978 136.302" stroke="black" stroke-linecap="round" stroke-linejoin="round"/>
<path opacity="0.3" d="M145.979 92.0547L136.385 101.648" stroke="black" stroke-linecap="round" stroke-linejoin="round"/>
<path opacity="0.3" d="M236.017 220.467L230.754 225.72" stroke="black" stroke-linecap="round" stroke-linejoin="round"/>
<path opacity="0.3" d="M256.748 199.737L240.659 215.826" stroke="black" stroke-linecap="round" stroke-linejoin="round"/>
<path opacity="0.3" d="M263.554 191.314L233.23 221.627" stroke="black" stroke-linecap="round" stroke-linejoin="round"/>
<path opacity="0.3" d="M223.026 241.746L218.385 246.388" stroke="black" stroke-linecap="round" stroke-linejoin="round"/>
<path opacity="0.3" d="M242.513 222.249L227.978 236.794" stroke="black" stroke-linecap="round" stroke-linejoin="round"/>
<path opacity="0.3" d="M145.979 192.547L136.385 202.14" stroke="black" stroke-linecap="round" stroke-linejoin="round"/>
<path opacity="0.3" d="M236.017 320.959L230.754 326.211" stroke="black" stroke-linecap="round" stroke-linejoin="round"/>
<path opacity="0.3" d="M256.748 300.229L240.659 316.318" stroke="black" stroke-linecap="round" stroke-linejoin="round"/>
</g>
<path d="M446.004 476.98C446.004 476.98 444.968 464.227 446.004 456.437C447.04 448.646 452.023 445.807 452.376 442.264C452.728 438.721 450.604 435.178 452.738 431.635C454.564 428.915 456.702 426.418 459.11 424.196C459.11 424.196 456.281 429.511 458.405 433.759C460.529 438.006 463.823 442.616 461.586 446.191C459.348 449.765 456.986 453.277 457.69 456.115C458.395 458.954 462.3 458.239 461.586 464.611C460.871 470.982 459.11 473.468 459.11 473.468L459.462 477.012L447.423 476.659" fill="#651FFF"/>
<path d="M446.004 476.98C446.004 476.98 444.968 464.227 446.004 456.437C447.04 448.646 452.023 445.807 452.376 442.264C452.728 438.721 450.604 435.178 452.738 431.635C454.564 428.915 456.702 426.418 459.11 424.196C459.11 424.196 456.281 429.511 458.405 433.759C460.529 438.006 463.823 442.616 461.586 446.191C459.348 449.765 456.986 453.277 457.69 456.115C458.395 458.954 462.3 458.239 461.586 464.611C460.871 470.982 459.11 473.468 459.11 473.468L459.462 477.012L447.423 476.659" stroke="black" stroke-linecap="round" stroke-linejoin="round"/>
<path d="M445.072 476.836C445.072 476.836 447.589 474.194 443.507 470.205C440.866 467.625 438.276 463.792 438.151 459.845C438.089 457.887 438.98 456.333 438.379 454.499C437.727 452.5 435.686 451.236 435.126 449.009C434.09 444.709 436.939 440.721 437.291 439.322C437.644 437.923 437.291 437.861 435.375 434.069C434.228 431.887 433.603 429.469 433.552 427.004C433.898 428.239 434.57 429.358 435.498 430.244C436.426 431.13 437.575 431.75 438.825 432.039C443.28 433.199 445.828 436.059 445.517 441.477C445.207 446.895 444.844 448.252 448.625 449.236C454.551 450.79 453.961 454.862 453.298 459.835C452.873 462.943 452.707 463.761 454.551 466.051C456.053 467.884 458.384 467.574 456.561 470.744C454.551 474.246 457.442 477.198 453.909 478.11C450.376 479.021 445.072 476.836 445.072 476.836Z" fill="#651FFF" stroke="black" stroke-linecap="round" stroke-linejoin="round"/>
<path d="M460.011 477.426C460.011 477.426 457.566 474.712 461.762 470.837C464.466 468.33 467.159 464.569 467.398 460.601C467.511 458.643 466.672 457.058 467.325 455.256C468.04 453.277 470.112 452.065 470.723 449.858C471.915 445.579 469.159 441.497 468.838 440.109C468.516 438.721 468.838 438.659 470.91 434.929C472.117 432.78 472.805 430.378 472.919 427.916C472.54 429.143 471.836 430.245 470.883 431.105C469.929 431.966 468.761 432.553 467.501 432.805C463.015 433.841 460.394 436.628 460.55 442.047C460.705 447.465 461.037 448.843 457.234 449.723C451.267 451.101 451.733 455.193 452.262 460.187C452.593 463.295 452.738 464.134 450.832 466.33C449.278 468.123 446.968 467.75 448.698 470.972C450.604 474.525 447.662 477.395 451.143 478.4C454.624 479.405 460.011 477.426 460.011 477.426Z" fill="#651FFF" stroke="black" stroke-linecap="round" stroke-linejoin="round"/>
<path d="M467.719 474.142V492.272C467.723 492.618 467.705 492.964 467.667 493.308C467.591 494.253 467.389 495.183 467.066 496.074C466.28 498.295 464.825 500.218 462.901 501.578C460.977 502.938 458.679 503.668 456.323 503.668H450.107C447.763 503.653 445.481 502.916 443.571 501.557C441.662 500.198 440.218 498.283 439.436 496.074C439.113 495.183 438.911 494.253 438.835 493.308C438.797 492.964 438.779 492.618 438.783 492.272V474.142H467.719Z" fill="white" stroke="black" stroke-linecap="round" stroke-linejoin="round"/>
<path d="M467.719 487.092H438.742V487.776H467.719V487.092Z" fill="#263238" stroke="black" stroke-linecap="round" stroke-linejoin="round"/>
<path d="M467.667 491.64C467.591 492.585 467.389 493.515 467.066 494.406H439.436C439.113 493.515 438.911 492.585 438.835 491.64H467.667Z" fill="#263238" stroke="black" stroke-linecap="round" stroke-linejoin="round"/>
<path d="M52.0757 200.586L65.1707 326.129" stroke="#263238" stroke-linecap="round" stroke-linejoin="round"/>
<path d="M63.2956 308.361L57.4629 302.228" stroke="#263238" stroke-linecap="round" stroke-linejoin="round"/>
<path d="M59.3898 304.238C59.376 303.213 59.1433 302.204 58.7073 301.276C58.2713 300.349 57.6422 299.526 56.862 298.861C55.2355 297.4 46.6781 293.806 45.8597 296.789C44.9791 300.094 53.7436 306.538 59.3898 304.238Z" fill="#651FFF" stroke="#263238" stroke-linecap="round" stroke-linejoin="round"/>
<path d="M59.3896 304.238L51.2363 299.151" stroke="#263238" stroke-linecap="round" stroke-linejoin="round"/>
<path d="M64.7459 322.202L59.0479 317.468" stroke="#263238" stroke-linecap="round" stroke-linejoin="round"/>
<path d="M60.9749 319.478C60.9673 318.45 60.7385 317.436 60.3041 316.505C59.8697 315.573 59.2398 314.746 58.4574 314.08C56.8309 312.619 48.2631 309.024 47.4551 312.008C46.5641 315.334 55.3287 321.777 60.9749 319.478Z" fill="#651FFF" stroke="#263238" stroke-linecap="round" stroke-linejoin="round"/>
<path d="M60.9749 319.478L52.8215 314.391" stroke="#263238" stroke-linecap="round" stroke-linejoin="round"/>
<path d="M59.338 270.226L53.5779 265.046" stroke="#263238" stroke-linecap="round" stroke-linejoin="round"/>
<path d="M55.5048 267.056C55.4968 266.033 55.2698 265.024 54.8392 264.097C54.4085 263.169 53.7841 262.345 53.0081 261.679C51.3815 260.218 42.8138 256.623 42.0057 259.607C41.0941 262.912 49.9001 269.356 55.5048 267.056Z" fill="#651FFF" stroke="#263238" stroke-linecap="round" stroke-linejoin="round"/>
<path d="M55.5046 267.056L47.3513 261.969" stroke="#263238" stroke-linecap="round" stroke-linejoin="round"/>
<path d="M60.9439 286.429L55.1733 280.286" stroke="#263238" stroke-linecap="round" stroke-linejoin="round"/>
<path d="M57.1519 282.296C57.1381 281.271 56.9054 280.261 56.4694 279.334C56.0334 278.407 55.4043 277.583 54.6241 276.919C52.9976 275.458 44.4402 271.863 43.6218 274.847C42.6479 278.152 51.4539 284.596 57.1519 282.296Z" fill="#651FFF" stroke="#263238" stroke-linecap="round" stroke-linejoin="round"/>
<path d="M57.1001 282.296L48.9468 277.209" stroke="#263238" stroke-linecap="round" stroke-linejoin="round"/>
<path d="M56.7686 246.181L50.998 240.296" stroke="#263238" stroke-linecap="round" stroke-linejoin="round"/>
<path d="M52.9251 242.306C52.9112 241.281 52.6785 240.272 52.2426 239.344C51.8066 238.417 51.1774 237.593 50.3973 236.929C48.7707 235.468 40.2134 231.873 39.3949 234.857C38.504 238.162 47.2789 244.606 52.9251 242.306Z" fill="#651FFF" stroke="#263238" stroke-linecap="round" stroke-linejoin="round"/>
<path d="M52.925 242.306L44.7717 237.219" stroke="#263238" stroke-linecap="round" stroke-linejoin="round"/>
<path d="M53.9921 219.711L48.3977 215.432" stroke="#263238" stroke-linecap="round" stroke-linejoin="round"/>
<path d="M50.3247 217.442C50.3167 216.419 50.0898 215.41 49.6591 214.483C49.2284 213.555 48.604 212.731 47.828 212.065C46.2015 210.615 37.6337 207.009 36.8257 209.993C35.9243 213.308 44.72 219.742 50.3247 217.442Z" fill="#651FFF" stroke="#263238" stroke-linecap="round" stroke-linejoin="round"/>
<path d="M50.3248 217.442L42.1819 212.366" stroke="#263238" stroke-linecap="round" stroke-linejoin="round"/>
<path d="M62.7361 299.908L67.5535 292.044" stroke="#263238" stroke-linecap="round" stroke-linejoin="round"/>
<path d="M66.0822 294.396C65.8837 293.392 65.902 292.356 66.1361 291.359C66.3702 290.362 66.8145 289.427 67.4394 288.615C68.7344 286.864 76.3697 281.571 77.7994 284.347C79.3326 287.382 72.0806 295.505 66.0822 294.396Z" fill="#651FFF" stroke="#263238" stroke-linecap="round" stroke-linejoin="round"/>
<path d="M66.0823 294.406L71.8217 289.03" stroke="#263238" stroke-linecap="round" stroke-linejoin="round"/>
<path d="M58.5505 259.814L63.3679 251.951" stroke="#263238" stroke-linecap="round" stroke-linejoin="round"/>
<path d="M61.8969 254.313C61.6984 253.309 61.7167 252.273 61.9508 251.276C62.1849 250.279 62.6292 249.344 63.2541 248.532C64.5491 246.771 70.5061 242.368 71.9357 245.155C73.4794 248.18 67.8953 255.401 61.8969 254.313Z" fill="#651FFF" stroke="#263238" stroke-linecap="round" stroke-linejoin="round"/>
<path d="M61.897 254.313L69.2422 247.3" stroke="#263238" stroke-linecap="round" stroke-linejoin="round"/>
<path d="M56.7065 242.192L61.5343 234.329" stroke="#263238" stroke-linecap="round" stroke-linejoin="round"/>
<path d="M60.0632 236.691C59.8646 235.686 59.883 234.651 60.1171 233.654C60.3511 232.657 60.7954 231.721 61.4203 230.91C62.7153 229.149 70.3403 223.855 71.7803 226.642C73.3032 229.667 66.0616 237.779 60.0632 236.691Z" fill="#651FFF" stroke="#263238" stroke-linecap="round" stroke-linejoin="round"/>
<path d="M60.0632 236.691L67.3981 229.677" stroke="#263238" stroke-linecap="round" stroke-linejoin="round"/>
<path d="M54.0129 216.354L58.8303 208.501" stroke="#263238" stroke-linecap="round" stroke-linejoin="round"/>
<path d="M57.3591 210.853C57.1607 209.848 57.18 208.811 57.4159 207.814C57.6518 206.817 58.0988 205.882 58.7266 205.072C60.0113 203.321 67.6466 198.027 69.0866 200.804C70.6199 203.839 63.3679 211.951 57.3591 210.853Z" fill="#651FFF" stroke="#263238" stroke-linecap="round" stroke-linejoin="round"/>
<path d="M57.3591 210.853L64.7044 203.839" stroke="#263238" stroke-linecap="round" stroke-linejoin="round"/>
<path d="M51.9721 199.84C51.7736 198.836 51.7919 197.8 52.026 196.803C52.2601 195.806 52.7044 194.871 53.3293 194.06C54.6243 192.298 62.2596 187.004 63.6893 189.791C65.2018 192.868 57.9498 200.928 51.9721 199.84Z" fill="#651FFF" stroke="#263238" stroke-linecap="round" stroke-linejoin="round"/>
<path d="M51.9512 199.84L59.2964 192.827" stroke="#263238" stroke-linecap="round" stroke-linejoin="round"/>
<path d="M52.376 200.12C51.361 200.213 50.3377 200.089 49.3747 199.755C48.4117 199.421 47.5312 198.885 46.792 198.183C45.1758 196.722 40.721 188.569 43.6322 187.45C46.792 186.238 54.0958 194.287 52.376 200.12Z" fill="#651FFF" stroke="#263238" stroke-linecap="round" stroke-linejoin="round"/>
<path d="M52.376 200.141L46.1704 192.112" stroke="#263238" stroke-linecap="round" stroke-linejoin="round"/>
<path d="M73.0132 164.471V325.818" stroke="#263238" stroke-linecap="round" stroke-linejoin="round"/>
<path d="M88.9468 219.037L77.8098 326.439" stroke="#263238" stroke-linecap="round" stroke-linejoin="round"/>
<path d="M77.9859 325.652L74.7639 321.974" stroke="#263238" stroke-linecap="round" stroke-linejoin="round"/>
<path d="M74.764 321.974C74.9687 320.963 74.9534 319.92 74.7192 318.915C74.4851 317.911 74.0374 316.968 73.4068 316.152C72.1118 314.391 64.4765 309.107 63.0468 311.884C61.5135 314.961 68.7655 323.062 74.764 321.974Z" fill="#651FFF" stroke="#263238" stroke-linecap="round" stroke-linejoin="round"/>
<path d="M74.7641 321.974L67.8333 315.323" stroke="#263238" stroke-linecap="round" stroke-linejoin="round"/>
<path d="M81.9124 287.393L77.1365 283.404" stroke="#263238" stroke-linecap="round" stroke-linejoin="round"/>
<path d="M78.6282 284.792C78.8266 283.787 78.8072 282.751 78.5713 281.754C78.3354 280.756 77.8885 279.821 77.2606 279.011C75.976 277.25 68.3303 271.956 66.9006 274.743C65.3777 277.82 72.6297 285.88 78.6282 284.792Z" fill="#651FFF" stroke="#263238" stroke-linecap="round" stroke-linejoin="round"/>
<path d="M78.6283 284.792L71.6975 278.141" stroke="#263238" stroke-linecap="round" stroke-linejoin="round"/>
<path d="M80.3998 305.523L75.572 297.67" stroke="#263238" stroke-linecap="round" stroke-linejoin="round"/>
<path d="M77.0433 300.022C77.2418 299.017 77.2234 297.981 76.9893 296.984C76.7553 295.987 76.311 295.052 75.6861 294.241C74.3911 292.49 66.7558 287.196 65.3261 289.983C63.7928 293.008 71.0448 301.12 77.0433 300.022Z" fill="#651FFF" stroke="#263238" stroke-linecap="round" stroke-linejoin="round"/>
<path d="M77.0431 300.022L70.1123 293.381" stroke="#263238" stroke-linecap="round" stroke-linejoin="round"/>
<path d="M84.3262 262.985L79.7263 257.67" stroke="#263238" stroke-linecap="round" stroke-linejoin="round"/>
<path d="M81.1975 260.032C81.3959 259.027 81.3766 257.991 81.1407 256.993C80.9048 255.996 80.4578 255.061 79.83 254.251C78.535 252.5 70.8997 247.206 69.47 249.993C67.9471 253.018 75.1991 261.13 81.1975 260.032Z" fill="#651FFF" stroke="#263238" stroke-linecap="round" stroke-linejoin="round"/>
<path d="M81.1974 260.032L74.2666 253.381" stroke="#263238" stroke-linecap="round" stroke-linejoin="round"/>
<path d="M86.7506 239.716L82.3062 232.816" stroke="#263238" stroke-linecap="round" stroke-linejoin="round"/>
<path d="M83.7771 235.168C83.9755 234.163 83.9562 233.127 83.7203 232.129C83.4844 231.132 83.0374 230.197 82.4096 229.387C81.1146 227.636 73.4792 222.342 72.0496 225.129C70.5266 228.154 77.7786 236.266 83.7771 235.168Z" fill="#651FFF" stroke="#263238" stroke-linecap="round" stroke-linejoin="round"/>
<path d="M83.7773 235.168L76.8464 228.527" stroke="#263238" stroke-linecap="round" stroke-linejoin="round"/>
<path d="M78.9287 318.431L85.269 311.728" stroke="#263238" stroke-linecap="round" stroke-linejoin="round"/>
<path d="M83.342 313.738C83.3586 312.715 83.5914 311.707 84.0253 310.78C84.4592 309.854 85.0843 309.029 85.8595 308.361C87.486 306.901 96.0538 303.295 96.8618 306.289C97.7528 309.594 88.9882 316.038 83.342 313.738Z" fill="#651FFF" stroke="#263238" stroke-linecap="round" stroke-linejoin="round"/>
<path d="M83.342 313.738L91.9719 308.382" stroke="#263238" stroke-linecap="round" stroke-linejoin="round"/>
<path d="M83.0935 278.328L89.4338 271.625" stroke="#263238" stroke-linecap="round" stroke-linejoin="round"/>
<path d="M87.5068 273.676C87.5174 272.652 87.7476 271.642 88.1819 270.714C88.6162 269.787 89.2445 268.963 90.0243 268.299C91.6508 266.849 100.208 263.233 101.027 266.227C101.907 269.532 93.153 275.935 87.5068 273.676Z" fill="#651FFF" stroke="#263238" stroke-linecap="round" stroke-linejoin="round"/>
<path d="M87.5068 273.635L96.1367 268.279" stroke="#263238" stroke-linecap="round" stroke-linejoin="round"/>
<path d="M84.9272 260.705L91.2572 254.002" stroke="#263238" stroke-linecap="round" stroke-linejoin="round"/>
<path d="M89.3301 256.064C89.3439 255.039 89.5767 254.03 90.0126 253.102C90.4486 252.175 91.0777 251.352 91.8579 250.687C93.4844 249.237 102.042 245.621 102.85 248.615C103.772 251.92 94.9763 258.312 89.3301 256.064Z" fill="#651FFF" stroke="#263238" stroke-linecap="round" stroke-linejoin="round"/>
<path d="M89.3301 256.012L97.96 250.656" stroke="#263238" stroke-linecap="round" stroke-linejoin="round"/>
<path d="M87.5276 233.552L93.9404 228.175" stroke="#263238" stroke-linecap="round" stroke-linejoin="round"/>
<path d="M92.0134 230.164C92.0247 229.14 92.2552 228.13 92.6894 227.203C93.1237 226.275 93.7516 225.452 94.5309 224.787C96.1574 223.337 104.725 219.732 105.533 222.715C106.424 226.02 97.6596 232.485 92.0134 230.164Z" fill="#651FFF" stroke="#263238" stroke-linecap="round" stroke-linejoin="round"/>
<path d="M92.0134 230.174L100.643 224.829" stroke="#263238" stroke-linecap="round" stroke-linejoin="round"/>
<path d="M88.9883 218.281C88.9988 217.257 89.229 216.247 89.6633 215.32C90.0976 214.392 90.7259 213.568 91.5058 212.904C93.1323 211.454 101.69 207.849 102.508 210.832C103.399 214.137 94.6345 220.581 88.9883 218.281Z" fill="#651FFF" stroke="#263238" stroke-linecap="round" stroke-linejoin="round"/>
<path d="M88.9883 218.281L97.6182 212.925" stroke="#263238" stroke-linecap="round" stroke-linejoin="round"/>
<path d="M89.3404 218.665C88.3192 218.542 87.3364 218.201 86.4587 217.664C85.581 217.128 84.829 216.409 84.2537 215.557C82.9794 213.785 80.2962 204.896 83.3731 204.399C86.7297 203.902 92.2205 213.298 89.3404 218.665Z" fill="#651FFF" stroke="#263238" stroke-linecap="round" stroke-linejoin="round"/>
<path d="M89.3405 218.664L84.9167 209.527" stroke="#263238" stroke-linecap="round" stroke-linejoin="round"/>
<path d="M72.7851 308.123L67.543 301.12" stroke="#263238" stroke-linecap="round" stroke-linejoin="round"/>
<path d="M69.2525 303.316C69.3462 302.295 69.2199 301.265 68.8821 300.296C68.5444 299.328 68.003 298.443 67.2944 297.701C65.8337 296.095 57.6907 291.62 56.5718 294.531C55.3493 297.701 63.368 305.025 69.2525 303.316Z" fill="#651FFF" stroke="#263238" stroke-linecap="round" stroke-linejoin="round"/>
<path d="M69.2525 303.316L61.6689 297.411" stroke="#263238" stroke-linecap="round" stroke-linejoin="round"/>
<path d="M72.9716 274.329L67.543 269.273" stroke="#263238" stroke-linecap="round" stroke-linejoin="round"/>
<path d="M69.2525 271.47C69.346 270.45 69.2196 269.421 68.8818 268.455C68.5441 267.488 68.0027 266.605 67.2944 265.865C65.8337 264.249 57.6907 259.773 56.5718 262.695C55.3493 265.865 63.368 273.179 69.2525 271.47Z" fill="#651FFF" stroke="#263238" stroke-linecap="round" stroke-linejoin="round"/>
<path d="M69.2525 271.469L61.6689 265.574" stroke="#263238" stroke-linecap="round" stroke-linejoin="round"/>
<path d="M73.1477 239.208L67.543 231.894" stroke="#263238" stroke-linecap="round" stroke-linejoin="round"/>
<path d="M69.2525 234.09C69.3462 233.069 69.2199 232.039 68.8821 231.071C68.5444 230.102 68.003 229.217 67.2944 228.475C65.8337 226.87 57.6907 222.394 56.5718 225.305C55.3493 228.475 63.368 235.8 69.2525 234.09Z" fill="#651FFF" stroke="#263238" stroke-linecap="round" stroke-linejoin="round"/>
<path d="M69.2525 234.09L61.6689 228.185" stroke="#263238" stroke-linecap="round" stroke-linejoin="round"/>
<path d="M72.7851 211.734L67.543 207.01" stroke="#263238" stroke-linecap="round" stroke-linejoin="round"/>
<path d="M69.2525 209.206C69.3462 208.184 69.2199 207.155 68.8821 206.186C68.5444 205.217 68.003 204.332 67.2944 203.591C65.8337 201.975 57.6907 197.509 56.5718 200.421C55.3493 203.591 63.368 210.905 69.2525 209.206Z" fill="#651FFF" stroke="#263238" stroke-linecap="round" stroke-linejoin="round"/>
<path d="M69.2525 209.206L61.6689 203.301" stroke="#263238" stroke-linecap="round" stroke-linejoin="round"/>
<path d="M73.0857 186.838L67.6467 182.85" stroke="#263238" stroke-linecap="round" stroke-linejoin="round"/>
<path d="M69.2525 184.207C69.346 183.187 69.2196 182.159 68.8818 181.192C68.5441 180.225 68.0027 179.342 67.2944 178.602C65.8337 176.986 57.6907 172.511 56.5718 175.422C55.3493 178.602 63.368 185.916 69.2525 184.207Z" fill="#651FFF" stroke="#263238" stroke-linecap="round" stroke-linejoin="round"/>
<path d="M69.2525 184.207L61.6689 178.312" stroke="#263238" stroke-linecap="round" stroke-linejoin="round"/>
<path d="M74.1113 316.587L78.6387 310.848" stroke="#263238" stroke-linecap="round" stroke-linejoin="round"/>
<path d="M76.9291 313.044C76.8381 312.021 76.9677 310.99 77.309 310.022C77.6504 309.053 78.1956 308.169 78.9079 307.429C80.379 305.813 88.522 301.337 89.6408 304.259C90.8322 307.429 82.7825 314.743 76.9291 313.044Z" fill="#651FFF" stroke="#263238" stroke-linecap="round" stroke-linejoin="round"/>
<path d="M76.9292 313.034L84.9582 306.818" stroke="#263238" stroke-linecap="round" stroke-linejoin="round"/>
<path d="M73.0234 267.522L78.6386 260.198" stroke="#263238" stroke-linecap="round" stroke-linejoin="round"/>
<path d="M76.9293 262.394C76.8398 261.373 76.9701 260.344 77.3114 259.377C77.6527 258.411 78.1971 257.528 78.908 256.789C80.3791 255.173 88.5221 250.698 89.641 253.619C90.8324 256.789 82.7827 264.103 76.9293 262.394Z" fill="#651FFF" stroke="#263238" stroke-linecap="round" stroke-linejoin="round"/>
<path d="M76.9292 262.394L84.9582 256.178" stroke="#263238" stroke-linecap="round" stroke-linejoin="round"/>
<path d="M73.0234 242.524L78.6386 235.209" stroke="#263238" stroke-linecap="round" stroke-linejoin="round"/>
<path d="M76.9292 237.416C76.8367 236.391 76.9655 235.359 77.3069 234.388C77.6483 233.418 78.1943 232.532 78.908 231.791C80.3791 230.174 88.5221 225.709 89.641 228.62C90.8324 231.791 82.7826 239.105 76.9292 237.416Z" fill="#651FFF" stroke="#263238" stroke-linecap="round" stroke-linejoin="round"/>
<path d="M76.9292 237.395L84.9582 231.179" stroke="#263238" stroke-linecap="round" stroke-linejoin="round"/>
<path d="M73.0234 209.486L78.6386 202.171" stroke="#263238" stroke-linecap="round" stroke-linejoin="round"/>
<path d="M76.9292 204.368C76.843 203.345 76.9747 202.316 77.3158 201.348C77.6569 200.38 78.1996 199.495 78.908 198.753C80.3791 197.136 88.5221 192.671 89.641 195.582C90.8324 198.753 82.7826 206.067 76.9292 204.368Z" fill="#651FFF" stroke="#263238" stroke-linecap="round" stroke-linejoin="round"/>
<path d="M76.9292 204.368L84.9582 198.152" stroke="#263238" stroke-linecap="round" stroke-linejoin="round"/>
<path d="M73.2722 180.975L78.7734 176.686" stroke="#263238" stroke-linecap="round" stroke-linejoin="round"/>
<path d="M76.9293 178.364C76.8429 177.346 76.9746 176.322 77.3159 175.359C77.6571 174.396 78.1999 173.517 78.9081 172.78C80.3792 171.164 88.5222 166.699 89.641 169.61C90.8324 172.78 82.7827 180.094 76.9293 178.364Z" fill="#651FFF" stroke="#263238" stroke-linecap="round" stroke-linejoin="round"/>
<path d="M76.9292 178.385L84.9582 172.169" stroke="#263238" stroke-linecap="round" stroke-linejoin="round"/>
<path d="M72.6921 166.875C72.6017 165.854 72.7286 164.826 73.0643 163.859C73.4 162.891 73.9369 162.005 74.6398 161.26C76.1109 159.643 84.2538 155.178 85.3727 158.089C86.5952 161.26 78.5455 168.574 72.6921 166.875Z" fill="#651FFF" stroke="#263238" stroke-linecap="round" stroke-linejoin="round"/>
<path d="M72.6919 166.875L80.7209 160.659" stroke="#263238" stroke-linecap="round" stroke-linejoin="round"/>
<path d="M73.0856 167.217C72.061 167.203 71.0512 166.97 70.1239 166.534C69.1965 166.098 68.3731 165.469 67.7088 164.689C66.2584 163.062 62.6634 154.495 65.6368 153.687C68.9623 152.806 75.3959 161.571 73.0856 167.217Z" fill="#651FFF" stroke="#263238" stroke-linecap="round" stroke-linejoin="round"/>
<path d="M73.0858 167.217L67.74 158.576" stroke="#263238" stroke-linecap="round" stroke-linejoin="round"/>
<path d="M450.635 218.685C450.635 218.685 426.351 230.288 421.627 237.333C419.555 240.389 405.735 295.619 405.735 295.619L396.577 303.254L410.614 328.118H493.981C493.981 328.118 500.083 242.13 498.861 237.882C497.638 233.635 468.651 221.13 465.336 219.597C462.021 218.064 453.391 217.152 450.635 218.685Z" fill="#651FFF" stroke="#263238" stroke-linecap="round" stroke-linejoin="round"/>
<path d="M439.602 281.249L455.1 294.044L442.834 287.123" stroke="#263238" stroke-miterlimit="10"/>
<path d="M433.396 276.121L437.147 279.219" stroke="#263238" stroke-miterlimit="10"/>
<path d="M351.428 314.08C351.428 314.08 348.548 314.515 347.398 316.38C346.248 318.245 344.083 323.58 345.088 324.015C346.092 324.45 346.818 322.865 347.543 321.715C348.268 320.565 349.263 318.835 349.263 318.835L351.573 318.4L351.428 314.08Z" fill="white" stroke="#263238" stroke-linecap="round" stroke-linejoin="round"/>
<path d="M355.458 311.303C355.458 311.303 352.143 311.013 351.314 312.453C350.485 313.893 348.724 323.394 348.869 324.554C349.014 325.714 350.454 326.274 351.604 324.264C352.754 322.254 355.199 313.324 355.199 313.324L355.458 311.303Z" fill="white" stroke="#263238" stroke-linecap="round" stroke-linejoin="round"/>
<path d="M362.223 311.159C362.223 311.159 357.333 308.859 355.313 309.294C353.293 309.729 350.423 324.409 350.848 325.124C351.069 325.326 351.33 325.479 351.614 325.575C351.898 325.67 352.198 325.705 352.497 325.678C352.795 325.651 353.084 325.562 353.346 325.416C353.608 325.271 353.837 325.073 354.018 324.834C354.733 323.684 358.908 316.629 360.068 314.909C360.853 313.698 361.572 312.446 362.223 311.159Z" fill="white" stroke="#263238" stroke-linecap="round" stroke-linejoin="round"/>
<path d="M412.5 318.69C412.5 318.69 410.625 305.927 407.206 300.954C403.787 295.981 401.259 300.26 396.09 302.953C392.982 304.59 374.21 312.464 373.298 312.775C372.386 313.085 364.274 308.413 362.72 309.667C361.166 310.92 355.251 318.379 354.008 322.42C352.764 326.46 355.872 326.781 357.116 325.528C358.359 324.274 362.099 318.369 363.653 317.126C365.207 315.883 368.947 319.923 368.947 319.923C368.947 319.923 363.342 322.72 361.477 323.974C359.612 325.227 362.409 325.839 365.517 325.839C368.638 325.707 371.703 324.968 374.541 323.663L377.649 322.099C377.649 322.099 402.192 322.109 412.5 318.69Z" fill="white" stroke="#263238" stroke-linecap="round" stroke-linejoin="round"/>
<path d="M452.469 138.074C452.469 138.074 428.351 148.434 426.206 155.479C424.062 162.524 428.651 163.415 429.263 167.082C429.874 170.749 413.08 187.802 419.804 198.535C426.528 209.268 463.161 212.003 478.421 209.216C493.681 206.429 503.461 195.748 502.549 183.565C501.638 171.381 494.261 165.549 485.144 151.811C476.028 138.074 458.882 135.94 452.469 138.074Z" fill="#263238" stroke="#263238" stroke-linecap="round" stroke-linejoin="round"/>
<path d="M435.064 182.042C435.064 182.042 431.096 182.353 431.096 185.398C431.096 188.444 435.064 194.867 436.898 194.557C438.731 194.246 435.064 182.042 435.064 182.042Z" fill="white" stroke="#263238" stroke-linecap="round" stroke-linejoin="round"/>
<path d="M447.89 155.479C447.89 155.479 433.842 165.248 434.153 170.749C434.463 176.251 433.541 189.978 438.12 199.146C441.356 205.4 445.029 211.416 449.112 217.152C449.112 217.152 446.367 240.98 446.667 247.082C446.968 253.184 451.847 250.138 457.359 243.414C462.87 236.691 468.351 221.741 468.351 221.741L464.994 217.732L465.606 212.852C465.606 212.852 472.93 206.44 475.064 200.938C476.225 197.975 475.986 191.48 475.986 191.48C477.182 190.97 478.26 190.218 479.151 189.271C480.043 188.324 480.729 187.203 481.166 185.979L482.389 182.011C479.653 180.64 477 179.111 474.443 177.432C471.232 174.849 468.174 172.081 465.284 169.144C465.284 169.144 452.78 162.824 447.89 155.479Z" fill="white" stroke="#263238" stroke-linecap="round" stroke-linejoin="round"/>
<path d="M447.279 177.763C447.279 177.763 445.756 193.303 447.589 196.701C449.423 200.099 454.303 196.701 454.303 196.701" stroke="#263238" stroke-miterlimit="10"/>
<path d="M448.76 203.114C448.76 203.114 456.706 204.637 460.974 199.146" stroke="#263238" stroke-miterlimit="10"/>
<path d="M458.27 181.431C459.283 181.431 460.104 180.406 460.104 179.141C460.104 177.877 459.283 176.852 458.27 176.852C457.258 176.852 456.437 177.877 456.437 179.141C456.437 180.406 457.258 181.431 458.27 181.431Z" fill="#263238"/>
<path d="M441.176 181.431C442.189 181.431 443.01 180.406 443.01 179.141C443.01 177.877 442.189 176.852 441.176 176.852C440.164 176.852 439.343 177.877 439.343 179.141C439.343 180.406 440.164 181.431 441.176 181.431Z" fill="#263238"/>
<path d="M454.914 170.749C454.914 170.749 459.493 168.916 462.238 171.661" stroke="#263238" stroke-miterlimit="10"/>
<path d="M444.533 171.05C444.533 171.05 439.954 168.916 438.12 173.184" stroke="#263238" stroke-miterlimit="10"/>
<path d="M421.731 270.837L425.533 290.988L417.753 320.244" stroke="#263238" stroke-linecap="round" stroke-linejoin="round"/>
<path d="M420.249 262.974L420.881 266.351" stroke="#263238" stroke-linecap="round" stroke-linejoin="round"/>
<path d="M491.557 232.122C491.557 232.122 501.13 236.598 500.601 239.695C500.073 242.793 502.891 311.096 499.565 315.8C496.24 320.503 486.978 318.908 486.978 318.908C486.978 318.908 483.041 306.652 479.022 302.943C475.002 299.234 473.531 300.498 473.531 300.498L476.276 258.965" fill="#651FFF"/>
<path d="M491.557 232.122C491.557 232.122 501.13 236.598 500.601 239.695C500.073 242.793 502.891 311.096 499.565 315.8C496.24 320.503 486.978 318.908 486.978 318.908C486.978 318.908 483.041 306.652 479.022 302.943C475.002 299.234 473.531 300.498 473.531 300.498L476.276 258.965" stroke="#263238" stroke-linecap="round" stroke-linejoin="round"/>
<path d="M402.44 314.93C401.07 316.602 399.435 318.04 397.602 319.188C394.764 320.897 391.065 321.747 393.624 322.886C396.183 324.026 400.161 322.316 402.44 320.897C404.72 319.478 402.44 314.93 402.44 314.93Z" fill="white" stroke="#263238" stroke-linecap="round" stroke-linejoin="round"/>
<path d="M459.462 309.252C465.678 305.46 471.252 299.151 478.99 298.892C486.729 298.633 493.857 304.072 497.276 310.62C498.395 312.764 499.172 315.282 498.467 317.592C497.152 321.943 491.713 323.207 487.206 323.735L462.342 326.688C447.444 328.449 431.759 330.107 417.939 324.264C417.758 325.584 417.172 326.815 416.261 327.786C415.225 328.646 413.391 328.605 412.873 327.393C412.333 327.899 411.638 328.207 410.9 328.267C410.163 328.327 409.427 328.136 408.812 327.724C408.553 327.569 407.227 328.252 405.849 328.014C405.362 327.921 403.663 327.175 403.176 327.061C402.852 327.023 402.538 326.921 402.254 326.761C401.969 326.601 401.719 326.386 401.518 326.129C401.316 325.717 401.23 325.259 401.27 324.803C401.097 321.87 401.377 318.927 402.099 316.079C405.6 304.849 418.136 311.003 424.797 315.416C427.066 316.919 429.459 318.462 432.163 318.721C434.19 318.783 436.212 318.478 438.131 317.82C445.289 315.82 452.842 313.303 459.389 309.356L459.462 309.252Z" fill="white" stroke="#263238" stroke-linecap="round" stroke-linejoin="round"/>
<path d="M417.898 324.233L418.975 320.006" stroke="#263238" stroke-linecap="round" stroke-linejoin="round"/>
<path d="M412.956 326.864C412.956 326.864 413.526 315.209 415.515 312.65" stroke="#263238" stroke-linecap="round" stroke-linejoin="round"/>
<path d="M408.978 327.144C408.978 327.144 408.118 316.919 410.107 312.081" stroke="#263238" stroke-linecap="round" stroke-linejoin="round"/>
<path d="M404.668 327.103C404.668 327.103 403.86 319.281 405.279 313.79" stroke="#263238" stroke-linecap="round" stroke-linejoin="round"/>
<path d="M60.4672 328.294L52.6972 255.453C52.6389 254.914 52.6949 254.369 52.8617 253.853C53.0284 253.337 53.3021 252.862 53.6648 252.459C54.0276 252.057 54.4712 251.735 54.9668 251.515C55.4623 251.295 55.9986 251.183 56.5407 251.184H106.756C107.635 251.183 108.489 251.482 109.174 252.032C109.86 252.582 110.338 253.351 110.527 254.209L126.937 328.294H60.4672Z" fill="#263238" stroke="#263238" stroke-linecap="round" stroke-linejoin="round"/>
<path d="M121.871 204.761C121.871 204.761 90.2003 221.607 89.3301 228.289C88.4598 234.971 85.8491 328.18 85.8491 328.18H168.926C168.926 328.18 160.793 291.619 159.923 287.258C159.053 282.896 157.851 275.354 157.851 275.354L185.222 287.786L189.283 260.488C189.283 260.488 174.987 239.902 165.984 228.569C156.981 217.235 145.357 208.522 140.084 207.362C134.81 206.201 121.871 204.761 121.871 204.761Z" fill="white" stroke="#263238" stroke-linecap="round" stroke-linejoin="round"/>
<path d="M157.893 275.354L159.457 262.031L163.85 246.491" stroke="#263238" stroke-miterlimit="10"/>
<path d="M159.457 262.031L160.338 248.253" stroke="#263238" stroke-miterlimit="10"/>
<path d="M149.75 281.374C150.495 281.674 151.2 281.974 151.822 282.275" stroke="#263238" stroke-miterlimit="10"/>
<path d="M121.322 273.179C121.322 273.179 136.023 276.556 146.186 280.037" stroke="#263238" stroke-miterlimit="10"/>
<path d="M139.214 239.747C139.214 239.747 140.685 262.912 141.286 264.383C141.887 265.854 145.098 264.673 145.098 264.673L143.026 251.205" stroke="#263238" stroke-miterlimit="10"/>
<path d="M113.251 253.443L115.458 250.304" stroke="#263238" stroke-miterlimit="10"/>
<path d="M104.311 266.144L111.034 256.592" stroke="#263238" stroke-miterlimit="10"/>
<path d="M131.392 198.048C131.392 198.048 122.068 200.12 120.358 201.819C118.649 203.518 115.707 214.313 115.707 214.313L120.887 241.622C120.887 241.622 135.702 228.548 137.732 227.968C139.763 227.387 157.199 237.551 157.199 237.551C157.199 237.551 156.618 223.896 152.257 215.183C147.895 206.471 144.124 202.99 140.063 200.369C137.452 198.787 134.444 197.982 131.392 198.048Z" fill="white" stroke="#263238" stroke-linecap="round" stroke-linejoin="round"/>
<path d="M131.392 179.193C131.392 179.193 129.32 194.298 128.781 199.239C128.242 204.181 125.3 201.85 127.04 207.952C128.781 214.054 138.364 239.032 140.405 236.96C142.446 234.888 148.828 210.242 150.278 208.491C151.728 206.74 154.349 203.311 154.349 203.311L131.392 179.193Z" fill="white" stroke="#263238" stroke-linecap="round" stroke-linejoin="round"/>
<path d="M131.205 180.581C130.812 183.544 129.869 190.61 129.237 195.551L151.428 203.394L149.646 198.4L133.35 181.275L131.205 180.581Z" fill="#263238" stroke="#263238" stroke-linecap="round" stroke-linejoin="round"/>
<path d="M97.4626 220.156C97.4626 220.156 86.4292 226.258 86.1391 229.48C85.849 232.702 65.5124 304.114 67.5118 309.625C69.5113 315.137 79.1358 316.017 79.1358 316.017C79.1358 316.017 88.1386 301.203 93.0803 298.592C95.2455 297.391 97.4882 296.335 99.7936 295.432L110.247 245.704" fill="white"/>
<path d="M97.4626 220.156C97.4626 220.156 86.4292 226.258 86.1391 229.48C85.849 232.702 65.5124 304.114 67.5118 309.625C69.5113 315.137 79.1358 316.017 79.1358 316.017C79.1358 316.017 88.1386 301.203 93.0803 298.592C95.2455 297.391 97.4882 296.335 99.7936 295.432L110.247 245.704" stroke="#263238" stroke-linecap="round" stroke-linejoin="round"/>
<path d="M169.216 312.246C170.617 313.955 172.286 315.424 174.158 316.598C177.059 318.348 180.84 319.219 178.229 320.379C175.619 321.539 171.547 319.799 169.216 318.307C166.885 316.815 169.216 312.246 169.216 312.246Z" fill="white" stroke="#263238" stroke-linecap="round" stroke-linejoin="round"/>
<path d="M105.305 300.612C105.305 300.612 105.139 300.394 104.829 300.032C103.086 297.93 100.981 296.159 98.6126 294.8C95.1213 293.06 84.6681 292.728 75.6549 303.233C66.6417 313.738 71.3037 318.918 78.566 320.659C85.8284 322.399 113.137 323.849 119.809 325.02C126.481 326.191 138.986 327.092 143.637 325.02C146.764 323.678 149.963 322.512 153.22 321.529C153.22 321.529 154.671 326.18 156.712 326.18C158.752 326.18 158.473 324.44 158.473 324.44C158.473 324.44 159.633 325.611 160.545 325.611C161.298 325.502 162.012 325.202 162.617 324.74C163.07 325.077 163.594 325.304 164.149 325.405C164.705 325.506 165.276 325.477 165.818 325.321C167.558 324.74 167.558 323.86 167.558 323.86C167.558 323.86 169.63 325.611 170.47 323.86C171.309 322.109 169.879 316.307 169.299 312.246C168.719 308.185 165.818 308.175 165.818 308.175L164.927 307.543C164.481 307.228 163.974 307.011 163.438 306.908C162.902 306.804 162.35 306.816 161.819 306.942L160.327 307.305C160.327 307.305 157.426 306.724 155.966 307.305C154.505 307.885 142.321 315.147 140.571 316.017C138.82 316.888 134.178 316.017 128.957 313.945C123.736 311.873 107.916 304.984 105.305 300.612Z" fill="white" stroke="#263238" stroke-linecap="round" stroke-linejoin="round"/>
<path d="M153.241 321.539L152.319 317.437" stroke="#263238" stroke-linecap="round" stroke-linejoin="round"/>
<path d="M83.8082 311.376C90.2003 302.684 105.305 300.612 105.305 300.612C105.305 300.612 105.139 300.394 104.829 300.032C103.086 297.93 100.981 296.159 98.6126 294.8C95.1213 293.06 84.6681 292.728 75.6549 303.233C66.6417 313.738 71.3037 318.918 78.566 320.659C79.3845 320.855 80.4826 321.052 81.7673 321.239C80.9799 318.659 80.9799 315.24 83.8082 311.376Z" fill="white" stroke="#263238" stroke-linecap="round" stroke-linejoin="round"/>
<path d="M158.473 324.44C158.473 324.44 157.892 312.536 155.852 309.936" stroke="#263238" stroke-linecap="round" stroke-linejoin="round"/>
<path d="M162.534 324.741C162.534 324.741 163.414 314.277 161.374 309.335" stroke="#263238" stroke-linecap="round" stroke-linejoin="round"/>
<path d="M167.476 323.86C167.615 319.57 167.226 315.28 166.315 311.086" stroke="#263238" stroke-linecap="round" stroke-linejoin="round"/>
<path d="M189.294 260.477C189.294 260.477 186.186 256.395 184.197 258.405C182.208 260.415 179.504 277.778 179.504 283.083C179.504 288.387 178.685 288.18 185.005 289.402C191.324 290.625 193.573 291.039 196.028 289.817C198.483 288.594 194.992 280.835 193.168 274.515C191.345 268.195 189.294 260.477 189.294 260.477Z" fill="white" stroke="#263238" stroke-linecap="round" stroke-linejoin="round"/>
<path d="M197.375 172.303C198.227 172.121 199.111 172.16 199.944 172.417L197.375 172.303Z" fill="white"/>
<path d="M197.375 172.303C198.227 172.121 199.111 172.16 199.944 172.417" stroke="#263238" stroke-linecap="round" stroke-linejoin="round"/>
<path d="M184.88 189.977C185.634 189.296 186.327 188.551 186.952 187.75C189.263 184.86 191.169 176.634 195.054 173.464" fill="white"/>
<path d="M184.88 189.977C185.634 189.296 186.327 188.551 186.952 187.75C189.263 184.86 191.169 176.634 195.054 173.464" stroke="#263238" stroke-linecap="round" stroke-linejoin="round"/>
<path d="M182.373 188.589C182.373 188.589 185.481 186.984 186.352 181.337L182.373 188.589Z" fill="white"/>
<path d="M182.373 188.589C182.373 188.589 185.481 186.984 186.352 181.337" stroke="#263238" stroke-linecap="round" stroke-linejoin="round"/>
<path d="M194.391 217.028L192.143 230.889C192.143 230.889 210.915 270.06 211.122 277.406C211.329 284.751 209.05 289.03 200.918 289.838C192.785 290.646 190.723 288.802 188.683 280.659C186.642 272.516 185.212 231.697 185.212 231.697C185.212 231.697 181.337 226.393 180.312 224.559C179.509 222.896 179.027 221.097 178.892 219.255C178.892 218.644 177.463 201.508 177.463 201.508L192.143 201.301L194.391 217.028Z" fill="white" stroke="#263238" stroke-linecap="round" stroke-linejoin="round"/>
<path d="M193.251 215.287L185.73 216.396C185.503 216.444 185.269 216.446 185.041 216.403C184.814 216.359 184.597 216.271 184.404 216.143C184.211 216.014 184.046 215.849 183.917 215.655C183.789 215.462 183.701 215.246 183.658 215.018L183.285 213.132C183.237 212.906 183.234 212.672 183.278 212.444C183.321 212.216 183.41 211.999 183.538 211.806C183.666 211.613 183.832 211.448 184.025 211.32C184.218 211.192 184.435 211.103 184.663 211.06L192.184 209.962C192.41 209.912 192.644 209.908 192.872 209.951C193.099 209.993 193.316 210.08 193.509 210.208C193.703 210.335 193.868 210.5 193.996 210.693C194.125 210.886 194.213 211.102 194.256 211.33L194.629 213.215C194.676 213.442 194.677 213.675 194.633 213.903C194.589 214.13 194.5 214.346 194.372 214.539C194.244 214.731 194.079 214.897 193.887 215.025C193.694 215.154 193.478 215.243 193.251 215.287Z" fill="white" stroke="#263238" stroke-linecap="round" stroke-linejoin="round"/>
<path d="M194.215 219.244L188.755 220.053C188.589 220.085 188.418 220.084 188.252 220.05C188.086 220.015 187.929 219.947 187.79 219.851C187.65 219.754 187.532 219.63 187.442 219.487C187.351 219.344 187.291 219.184 187.263 219.017L186.994 217.649C186.963 217.484 186.965 217.313 187 217.149C187.036 216.984 187.104 216.828 187.2 216.69C187.297 216.552 187.42 216.435 187.562 216.345C187.705 216.255 187.864 216.195 188.03 216.168L193.49 215.359C193.825 215.299 194.17 215.374 194.45 215.569C194.73 215.763 194.921 216.06 194.981 216.395L195.251 217.763C195.282 217.928 195.28 218.099 195.244 218.263C195.209 218.428 195.141 218.584 195.045 218.722C194.948 218.86 194.825 218.977 194.682 219.067C194.54 219.157 194.381 219.217 194.215 219.244Z" fill="white" stroke="#263238" stroke-linecap="round" stroke-linejoin="round"/>
<path d="M193.376 203.964L185.419 205.134C184.94 205.229 184.442 205.129 184.036 204.857C183.63 204.585 183.349 204.163 183.254 203.684L182.871 201.684C182.824 201.448 182.824 201.204 182.872 200.967C182.92 200.731 183.014 200.506 183.148 200.306C183.283 200.106 183.456 199.934 183.657 199.801C183.859 199.668 184.084 199.575 184.321 199.529L192.277 198.359C192.755 198.267 193.25 198.369 193.654 198.64C194.057 198.912 194.337 199.332 194.432 199.809L194.826 201.809C194.873 202.045 194.872 202.289 194.824 202.526C194.777 202.762 194.683 202.987 194.548 203.187C194.413 203.387 194.24 203.559 194.039 203.692C193.838 203.825 193.613 203.918 193.376 203.964Z" fill="white" stroke="#263238" stroke-linecap="round" stroke-linejoin="round"/>
<path d="M194.184 209.879L186.227 211.05C185.99 211.097 185.747 211.096 185.51 211.048C185.274 211.001 185.049 210.907 184.849 210.772C184.648 210.637 184.477 210.464 184.344 210.263C184.21 210.062 184.118 209.836 184.072 209.6L183.679 207.6C183.632 207.363 183.633 207.12 183.68 206.883C183.728 206.647 183.822 206.422 183.957 206.221C184.091 206.021 184.264 205.85 184.465 205.716C184.667 205.583 184.892 205.491 185.129 205.445L193.086 204.274C193.565 204.183 194.061 204.284 194.466 204.555C194.871 204.827 195.153 205.247 195.251 205.725L195.634 207.724C195.682 207.961 195.683 208.205 195.636 208.442C195.589 208.679 195.495 208.905 195.36 209.105C195.225 209.306 195.051 209.477 194.849 209.61C194.648 209.743 194.421 209.835 194.184 209.879Z" fill="white" stroke="#263238" stroke-linecap="round" stroke-linejoin="round"/>
<path d="M128.916 171.195C128.916 171.195 126.719 149.149 124.067 141.648C121.415 134.148 131.122 125.777 154.049 126.222C176.976 126.668 185.357 136.8 185.792 141.648C186.227 146.497 180.498 150.029 180.498 150.029L178.302 156.245L158.017 151.397C158.017 151.397 158.017 156.681 156.256 158.887C154.494 161.094 144.352 164.616 144.352 164.616C144.352 164.616 142.145 172.552 138.623 176.52C135.101 180.488 129.796 180.053 129.361 177.411C129.07 175.352 128.921 173.275 128.916 171.195Z" fill="#263238" stroke="#263238" stroke-linecap="round" stroke-linejoin="round"/>
<path d="M134.21 175.163C134.21 175.163 135.536 166.346 128.481 166.346C121.425 166.346 123.187 175.163 125.373 179.566C127.559 183.969 130.221 184.86 130.221 184.86C130.221 184.86 143.886 202.938 148.734 205.58C153.583 208.221 156.235 209.993 159.757 208.221C163.28 206.45 173.868 193.241 175.629 186.186C176.661 182.296 177.255 178.304 177.401 174.282C177.401 174.282 181.368 165.901 181.368 161.933C181.368 157.965 180.477 150.029 180.477 150.029C180.477 150.029 161.084 142.974 155.354 144.3C149.625 145.626 146.973 145.181 149.615 147.408C152.257 149.636 153.583 156.225 151.822 157.105C150.061 157.986 139.483 157.986 139.483 161.954C139.483 165.922 140.799 168.17 139.037 170.335C137.549 172.061 135.936 173.675 134.21 175.163Z" fill="white" stroke="#263238" stroke-linecap="round" stroke-linejoin="round"/>
<path d="M163.031 189.304C163.031 189.304 169.133 190.174 170.283 188.724C171.433 187.274 171.164 176.23 171.164 176.23L175.515 170.128C175.515 170.128 178.136 168.387 179.296 170.128" stroke="#263238" stroke-miterlimit="10"/>
<path d="M161 198.597L165.072 197.147" stroke="#263238" stroke-miterlimit="10"/>
<path d="M159.509 174.137C159.094 175.691 158.017 176.769 157.095 176.52C156.173 176.271 155.779 174.821 156.193 173.257C156.608 171.692 157.685 170.625 158.597 170.863C159.509 171.102 159.923 172.573 159.509 174.137Z" fill="#263238"/>
<path d="M176.023 176.675C175.608 178.24 174.531 179.307 173.619 179.058C172.707 178.81 172.293 177.359 172.707 175.795C173.122 174.23 174.199 173.163 175.111 173.402C176.023 173.64 176.437 175.111 176.023 176.675Z" fill="#263238"/>
<path d="M155.479 166.357C155.479 166.357 159.84 163.446 166.232 167.227" stroke="#263238" stroke-miterlimit="10"/>
<path d="M164.502 193.904L169.195 224.404L185.326 223.233L186.206 192.433C186.206 192.433 179.462 190.112 164.502 193.904Z" fill="white" stroke="#263238" stroke-linecap="round" stroke-linejoin="round"/>
<path d="M383.927 444.233L396.307 496.654C396.401 497.024 396.408 497.41 396.329 497.783C396.25 498.155 396.087 498.505 395.852 498.805C395.617 499.105 395.317 499.348 394.974 499.513C394.63 499.679 394.254 499.765 393.873 499.762H378.25V503.668H397.996C398.706 503.669 399.406 503.507 400.043 503.195C400.681 502.882 401.238 502.428 401.672 501.867C402.106 501.305 402.406 500.652 402.548 499.957C402.691 499.261 402.671 498.543 402.492 497.856L386.952 438.545L383.927 444.233Z" fill="white" stroke="#263238" stroke-linecap="round" stroke-linejoin="round"/>
<path d="M396.47 387.387L389.617 386.198L372.826 482.995L379.679 484.184L396.47 387.387Z" fill="#263238" stroke="#263238" stroke-width="0.994636" stroke-linecap="round" stroke-linejoin="round"/>
<path d="M355.406 500.943H292.22V503.678H355.406V500.943Z" fill="white" stroke="#263238" stroke-linecap="round" stroke-linejoin="round"/>
<path d="M441.674 324.802H317.924V328.346H441.674V324.802Z" fill="#263238" stroke="#263238" stroke-linecap="round" stroke-linejoin="round"/>
<path d="M441.663 324.802H398.224V328.346H441.663V324.802Z" fill="white" stroke="#263238" stroke-linecap="round" stroke-linejoin="round"/>
<path d="M399.695 324.803H319.343L311.531 271.366C311.423 270.795 311.443 270.207 311.592 269.645C311.741 269.083 312.013 268.562 312.39 268.12C312.767 267.678 313.238 267.325 313.769 267.089C314.3 266.853 314.877 266.739 315.458 266.755H386.6C387.877 266.796 389.1 267.277 390.061 268.117C391.023 268.958 391.663 270.106 391.873 271.366L399.695 324.803Z" fill="white" stroke="#263238" stroke-linecap="round" stroke-linejoin="round"/>
<path d="M398.151 324.803H317.799L309.988 271.366C309.879 270.794 309.9 270.205 310.049 269.643C310.198 269.08 310.472 268.558 310.85 268.116C311.228 267.673 311.7 267.321 312.232 267.086C312.765 266.85 313.343 266.737 313.925 266.756H385.056C386.334 266.795 387.559 267.276 388.522 268.117C389.485 268.957 390.128 270.105 390.34 271.366L398.151 324.803Z" fill="white" stroke="#263238" stroke-linecap="round" stroke-linejoin="round"/>
<path d="M148.268 328.346H274.743V324.73H148.268V328.346Z" fill="#263238" stroke="#263238" stroke-linecap="round" stroke-linejoin="round"/>
<path d="M148.279 328.346H192.671V324.73H148.279V328.346Z" fill="#651FFF" stroke="#263238" stroke-linecap="round" stroke-linejoin="round"/>
<path d="M191.179 324.73H273.293L281.28 270.112C281.39 269.528 281.368 268.927 281.216 268.353C281.063 267.779 280.784 267.246 280.398 266.794C280.013 266.342 279.531 265.982 278.988 265.74C278.445 265.499 277.855 265.382 277.261 265.399H204.565C203.258 265.438 202.006 265.93 201.022 266.789C200.038 267.649 199.382 268.823 199.167 270.112L191.179 324.73Z" fill="#651FFF" stroke="#263238" stroke-linecap="round" stroke-linejoin="round"/>
<path d="M192.754 324.73H274.868L282.855 270.112C282.966 269.529 282.946 268.929 282.795 268.355C282.645 267.781 282.367 267.248 281.984 266.795C281.601 266.342 281.121 265.98 280.579 265.737C280.038 265.494 279.449 265.374 278.856 265.388H206.139C204.833 265.428 203.581 265.919 202.597 266.779C201.613 267.638 200.957 268.813 200.742 270.102L192.754 324.73Z" fill="#651FFF" stroke="#263238" stroke-linecap="round" stroke-linejoin="round"/>
<path d="M236.225 293.36C236.462 291.951 237.178 290.666 238.251 289.722C239.325 288.779 240.691 288.234 242.12 288.18C242.773 288.158 243.423 288.284 244.02 288.549C244.618 288.813 245.148 289.209 245.572 289.707C245.995 290.205 246.3 290.792 246.465 291.425C246.63 292.057 246.649 292.719 246.523 293.36C246.285 294.771 245.568 296.057 244.492 297.001C243.416 297.945 242.048 298.488 240.617 298.54C239.966 298.558 239.318 298.43 238.723 298.164C238.127 297.898 237.599 297.502 237.177 297.005C236.756 296.508 236.451 295.922 236.286 295.291C236.121 294.66 236.1 294 236.225 293.36Z" fill="#263238" stroke="#263238" stroke-linecap="round" stroke-linejoin="round"/>
<path d="M49.8999 503.678H533.422" stroke="#263238" stroke-linecap="round" stroke-linejoin="round"/>
<path d="M523.072 328.346H303.316" stroke="#263238" stroke-linecap="round" stroke-linejoin="round"/>
<path d="M290.231 328.346H47.4551" stroke="#263238" stroke-linecap="round" stroke-linejoin="round"/>
<path d="M220.747 341.016C220.747 341.016 218.892 323.197 209.579 317.613C200.265 312.029 205.062 327.185 205.062 327.973C205.062 328.76 191.231 313.344 179.524 321.85C167.817 330.356 178.727 348.185 178.727 348.185C178.727 348.185 164.637 343.399 164.896 348.455C165.155 353.51 178.198 357.779 178.198 357.779C178.198 357.779 154.526 360.172 163.042 370.811C171.557 381.451 194.691 373.733 194.691 373.733C194.691 373.733 188.299 380.653 192.827 381.451C197.354 382.249 214.583 368.688 216.23 365.227C217.877 361.767 226.869 351.376 220.747 341.016Z" fill="#263238" stroke="#263238" stroke-linecap="round" stroke-linejoin="round"/>
<path d="M273.427 373.66C273.427 373.66 282.078 373.205 286.636 365.921C291.195 358.638 289.361 353.624 282.492 350.899C275.623 348.175 266.103 349.532 266.103 349.532C266.103 349.532 251.568 331.319 231.075 335.836C210.583 340.353 207.848 356.328 209.216 364.523L214.686 397.312C214.686 397.312 231.531 400.047 236.09 395.489C240.648 390.93 249.288 374.541 258.395 372.272C267.501 370.003 273.427 373.66 273.427 373.66Z" fill="#263238" stroke="#263238" stroke-linecap="round" stroke-linejoin="round"/>
<path d="M276.463 389.366C275.903 393.458 272.971 399.208 270.153 398.825C267.336 398.442 265.491 394.826 266.009 390.734C266.527 386.642 269.522 386.072 272.339 386.455C275.157 386.838 277.012 385.284 276.463 389.366Z" stroke="#263238" stroke-linecap="round" stroke-linejoin="round"/>
<path d="M227.885 384.59C227.885 384.59 231.532 385.958 237.002 381.865C242.472 377.773 242.461 367.745 254.303 365.466C266.144 363.186 273.883 368.657 274.339 371.847C274.795 375.038 272.972 381.41 272.972 387.781C272.972 394.152 274.339 397.343 275.707 398.711C277.074 400.078 278.887 399.167 276.162 401.902C273.628 404.138 270.88 406.119 267.957 407.817C267.957 407.817 260.218 422.394 257.038 425.118C253.857 427.843 246.108 426.486 243.373 425.118C240.638 423.751 234.722 420.57 234.722 420.57L231.076 433.324L209.216 415.608L214.686 397.395C214.686 397.395 225.616 394.608 227.885 384.59Z" fill="white" stroke="#263238" stroke-linecap="round" stroke-linejoin="round"/>
<path d="M234.722 420.57L228.859 413.909L232.018 427.822L234.722 420.57Z" fill="#263238" stroke="#263238" stroke-linecap="round" stroke-linejoin="round"/>
<path d="M269.408 390.651C269.252 392.402 268.372 393.759 267.398 393.666C266.424 393.572 265.813 392.091 265.968 390.33C266.124 388.568 267.004 387.222 267.978 387.315C268.952 387.408 269.532 388.89 269.408 390.651Z" fill="#263238"/>
<path d="M260.705 386.455L229.521 384.373" stroke="#263238" stroke-linecap="round" stroke-linejoin="round"/>
<path d="M271.013 390.754H273.541" stroke="#263238" stroke-linecap="round" stroke-linejoin="round"/>
<path d="M264.103 379.586C265.198 378.995 266.448 378.755 267.684 378.897C268.92 379.04 270.082 379.559 271.013 380.384" stroke="#263238" stroke-linecap="round" stroke-linejoin="round"/>
<path d="M264.103 413.101C264.103 413.101 260.643 413.101 258.25 409.112" stroke="#263238" stroke-linecap="round" stroke-linejoin="round"/>
<path d="M234.308 445.144L238.452 503.937H148.6C148.6 503.937 162.637 459.182 167.03 449.827C171.423 440.472 176.976 436.359 176.976 436.359C176.976 436.359 188.372 426.123 203.912 428.164C219.452 430.205 234.308 445.144 234.308 445.144Z" fill="#651FFF" stroke="#263238" stroke-linecap="round" stroke-linejoin="round"/>
<path d="M230.62 388.237C230.62 388.237 228.796 379.131 222.425 380.498C216.053 381.866 219.234 395.976 223.337 400.079C227.439 404.181 230.164 399.623 230.164 399.623" fill="white"/>
<path d="M230.62 388.237C230.62 388.237 228.796 379.131 222.425 380.498C216.053 381.866 219.234 395.976 223.337 400.079C227.439 404.181 230.164 399.623 230.164 399.623" stroke="#263238" stroke-linecap="round" stroke-linejoin="round"/>
<path d="M236.059 448.946C236.059 448.946 239.571 442.803 236.649 437.83C233.728 432.857 224.984 422.912 212.956 413.536C200.928 404.16 185.16 392.184 182.829 398.618C180.498 405.051 178.685 417.628 178.685 417.628C178.685 417.628 168.449 419.379 167.289 422.601C166.129 425.823 164.948 441.912 166.709 443.953C168.47 445.994 169.63 443.663 173.433 443.663C177.235 443.663 200.369 436.059 209.123 436.639C217.877 437.219 219.358 439.861 226.082 443.373C232.806 446.885 236.059 448.946 236.059 448.946Z" fill="#651FFF" stroke="#263238" stroke-linecap="round" stroke-linejoin="round"/>
<path d="M230.05 438.338C231.71 439.552 233.234 440.942 234.598 442.482" stroke="#263238" stroke-linecap="round" stroke-linejoin="round"/>
<path d="M185.709 423.575C192.402 422.187 200.524 421.451 206.222 424.082C213.454 427.475 220.386 431.475 226.942 436.038" stroke="#263238" stroke-linecap="round" stroke-linejoin="round"/>
<path d="M173.754 427.004C177.088 425.763 180.5 424.742 183.969 423.948" stroke="#263238" stroke-linecap="round" stroke-linejoin="round"/>
<path d="M182.508 417.68C182.508 417.68 189.822 414.758 199.768 417.97" stroke="#263238" stroke-linecap="round" stroke-linejoin="round"/>
<path d="M193.645 447.486C195.986 442.513 203.59 431.397 215.297 437.25C227.004 443.104 229.915 457.141 235.188 474.401C240.462 491.661 245.424 503.938 245.424 503.938H201.84L191.013 460.353" fill="#651FFF"/>
<path d="M193.645 447.486C195.986 442.513 203.59 431.397 215.297 437.25C227.004 443.104 229.915 457.141 235.188 474.401C240.462 491.661 245.424 503.938 245.424 503.938H201.84L191.013 460.353" stroke="#263238" stroke-linecap="round" stroke-linejoin="round"/>
<path d="M287.496 503.854L292.334 499.71C292.334 499.71 298.074 501.088 307.418 498.208C316.763 495.328 319.85 492.552 319.85 492.552C322.771 493.928 325.592 495.507 328.294 497.276C332.583 500.125 335.691 501.223 339.835 500.094C343.979 498.964 338.706 497.825 334.116 494.593C329.527 491.36 323.994 486.895 323.994 486.895C323.994 486.895 332.666 491.039 335.691 492.179C338.716 493.318 341.72 495.193 344.362 494.064C347.004 492.935 345.864 491.795 339.078 488.408C332.862 485.3 325.88 479.353 322.503 479.353C319.125 479.353 303.647 485.766 303.647 485.766L273.386 503.865L287.496 503.854Z" fill="white" stroke="#263238" stroke-linecap="round" stroke-linejoin="round"/>
<path d="M298.074 496.551C300.361 497.284 302.79 497.462 305.16 497.069C308.548 496.312 313.075 495.556 313.075 495.556C313.075 495.556 322.119 495.939 325.144 495.556C328.17 495.173 327.403 493.298 322.503 491.412C317.602 489.527 299.13 488.397 298.747 489.527C298.39 491.853 298.165 494.198 298.074 496.551Z" fill="#263238" stroke="#263238" stroke-linecap="round" stroke-linejoin="round"/>
<path d="M325.611 486.481C325.611 486.481 332.78 489.164 334.127 490.055C335.473 490.946 338.157 491.63 337.027 493.163C335.898 494.696 332.334 493.391 329.869 492.935C327.932 492.483 326.055 491.809 324.274 490.925L325.611 486.481Z" fill="white" stroke="#263238" stroke-linecap="round" stroke-linejoin="round"/>
<path d="M307.035 482.451C307.035 482.451 319.788 483.124 322.699 484.015C325.611 484.906 327.879 490.956 328.304 492.749C328.729 494.541 330.314 496.779 328.967 496.996C327.62 497.214 322.699 491.63 320.679 490.511C318.659 489.392 310.599 485.579 307.688 484.461C304.777 483.342 305.46 482.223 307.035 482.451Z" fill="white" stroke="#263238" stroke-linecap="round" stroke-linejoin="round"/>
<path d="M269.604 501.648C269.604 501.648 298.851 480.928 301.979 480.928C305.108 480.928 319.136 487.144 322.254 488.729C325.372 490.314 329.278 498.871 329.278 498.871C329.278 498.871 328.491 500.819 325.766 499.265C323.041 497.711 319.913 492.635 319.913 492.635L304.373 492.034C304.373 492.034 300.446 495.732 298.105 496.509C295.531 497.149 292.913 497.6 290.273 497.856L285.238 502.383L269.604 501.648Z" fill="white" stroke="#263238" stroke-linecap="round" stroke-linejoin="round"/>
<path d="M283.518 491.63L290.242 503.937H261.14L283.518 491.63Z" fill="#651FFF" stroke="#263238" stroke-linecap="round" stroke-linejoin="round"/>
<path d="M271.5 385.865C271.5 385.865 262.746 382.653 261.575 384.704C260.405 386.755 259.244 394.329 263.917 397.54C268.589 400.752 271.013 390.754 271.013 390.754" stroke="#263238" stroke-linecap="round" stroke-linejoin="round"/>
<path d="M297.504 184.58C318.674 184.58 335.836 167.418 335.836 146.248C335.836 125.078 318.674 107.916 297.504 107.916C276.334 107.916 259.172 125.078 259.172 146.248C259.172 167.418 276.334 184.58 297.504 184.58Z" fill="#263238" stroke="#263238" stroke-linecap="round" stroke-linejoin="round"/>
<path d="M297.504 180.405C316.368 180.405 331.661 165.112 331.661 146.248C331.661 127.384 316.368 112.091 297.504 112.091C278.639 112.091 263.347 127.384 263.347 146.248C263.347 165.112 278.639 180.405 297.504 180.405Z" fill="white" stroke="#263238" stroke-linecap="round" stroke-linejoin="round"/>
<path d="M288.356 155.841L297.504 146.248L321.321 163.601" stroke="#263238" stroke-width="3" stroke-linecap="round" stroke-linejoin="round"/>
</svg>
