<svg width="80" height="80" viewBox="0 0 80 80" fill="none" xmlns="http://www.w3.org/2000/svg">
<circle cx="40" cy="40" r="40" fill="#651FFF"/>
<circle cx="40" cy="40" r="40" fill="#651FFF"/>
<path d="M23.2335 53.5564C19.263 49.5837 19.263 43.1431 23.2335 39.1775L31.1289 31.2181C35.0382 27.3095 41.5351 27.3095 45.4445 31.2181C48.9601 34.7337 49.4804 40.3377 46.5906 44.3806L46.5132 44.4931C45.789 45.4986 44.3828 45.7377 43.3773 45.0134C42.3648 44.2892 42.1257 42.883 42.85 41.8775L42.9273 41.765C44.5375 39.508 44.2843 36.4212 42.3226 34.4595C40.1148 32.2517 36.5218 32.2517 34.307 34.4595L26.4179 42.3556C24.2024 44.5072 24.2024 48.1564 26.4179 50.3713C28.3726 52.333 31.4664 52.5861 33.7164 50.9759L33.8289 50.8353C34.8414 50.1744 36.2476 50.4064 36.9648 51.4189C37.689 52.4314 37.457 53.8377 36.4445 54.5619L36.332 54.6392C32.2257 57.5291 26.7484 57.065 23.2335 53.5564Z" fill="white"/>
<path opacity="0.4" d="M59.7671 26.4466C63.7398 30.4165 63.7398 36.8571 59.7671 40.8227L51.871 48.7188C47.8984 52.6915 41.4648 52.6915 37.4921 48.7188C33.9765 45.2032 33.5195 39.6626 36.4093 35.6196L36.4867 35.5071C37.1476 34.5016 38.5539 34.2626 39.6226 34.9868C40.6351 35.6477 40.8742 37.054 40.1499 38.1227L40.0726 38.2352C38.4624 40.429 38.7156 43.579 40.6773 45.5407C42.8851 47.7485 46.4781 47.7485 48.6929 45.5407L56.582 37.6446C58.7968 35.4298 58.7968 31.7805 56.582 29.629C54.6273 27.6694 51.5335 27.4134 49.2835 29.0243L49.171 29.1016C48.1585 29.8259 46.7523 29.5305 46.0351 28.5799C45.3109 27.5688 45.5429 26.1633 46.5554 25.4412L46.6679 25.3624C50.7109 22.4734 56.2515 22.9317 59.7671 26.4466Z" fill="white"/>
</svg>
