<svg width="80" height="80" viewBox="0 0 80 80" fill="none" xmlns="http://www.w3.org/2000/svg">
<circle cx="40" cy="40" r="40" fill="#651FFF"/>
<path d="M25.0715 26.9375C25.0715 25.7988 25.9834 24.875 27.1072 24.875C28.2311 24.875 29.143 25.7988 29.143 26.9375C29.143 28.0805 28.2311 29 27.1072 29C25.9834 29 25.0715 28.0805 25.0715 26.9375ZM50.8572 26.9375C50.8572 25.7988 51.7648 24.875 52.893 24.875C54.0211 24.875 54.9287 25.7988 54.9287 26.9375C54.9287 28.0805 54.0211 29 52.893 29C51.7648 29 50.8572 28.0805 50.8572 26.9375ZM29.143 53.0625C29.143 54.2055 28.2311 55.125 27.1072 55.125C25.9834 55.125 25.0715 54.2055 25.0715 53.0625C25.0715 51.9195 25.9834 51 27.1072 51C28.2311 51 29.143 51.9195 29.143 53.0625ZM50.8572 53.0625C50.8572 51.9195 51.7648 51 52.893 51C54.0211 51 54.9287 51.9195 54.9287 53.0625C54.9287 54.2055 54.0211 55.125 52.893 55.125C51.7648 55.125 50.8572 54.2055 50.8572 53.0625Z" fill="white"/>
<path opacity="0.4" d="M21 26.25C21 23.2121 23.4301 20.75 26.4286 20.75H53.5714C56.5656 20.75 59 23.2121 59 26.25V53.75C59 56.7836 56.5656 59.25 53.5714 59.25H26.4286C23.4301 59.25 21 56.7836 21 53.75V26.25ZM27.1071 24.875C25.9833 24.875 25.0714 25.7988 25.0714 26.9375C25.0714 28.0805 25.9833 29 27.1071 29C28.231 29 29.1429 28.0805 29.1429 26.9375C29.1429 25.7988 28.231 24.875 27.1071 24.875ZM52.8929 29C54.021 29 54.9286 28.0805 54.9286 26.9375C54.9286 25.7988 54.021 24.875 52.8929 24.875C51.7647 24.875 50.8571 25.7988 50.8571 26.9375C50.8571 28.0805 51.7647 29 52.8929 29ZM27.1071 51C25.9833 51 25.0714 51.9195 25.0714 53.0625C25.0714 54.2055 25.9833 55.125 27.1071 55.125C28.231 55.125 29.1429 54.2055 29.1429 53.0625C29.1429 51.9195 28.231 51 27.1071 51ZM52.8929 55.125C54.021 55.125 54.9286 54.2055 54.9286 53.0625C54.9286 51.9195 54.021 51 52.8929 51C51.7647 51 50.8571 51.9195 50.8571 53.0625C50.8571 54.2055 51.7647 55.125 52.8929 55.125Z" fill="white"/>
</svg>
