<svg width="80" height="80" viewBox="0 0 80 80" fill="none" xmlns="http://www.w3.org/2000/svg">
<circle cx="40" cy="40" r="40" fill="#651FFF"/>
<path d="M56.625 26.9375C56.625 30.218 53.968 32.875 50.6875 32.875C47.407 32.875 44.75 30.218 44.75 26.9375C44.75 23.6585 47.407 21 50.6875 21C53.968 21 56.625 23.6585 56.625 26.9375ZM51.875 53.0625C51.875 56.343 49.218 59 45.9375 59C42.657 59 40 56.343 40 53.0625C40 49.782 42.657 47.125 45.9375 47.125C49.218 47.125 51.875 49.782 51.875 53.0625ZM21 36.4375C21 33.157 23.6585 30.5 26.9375 30.5C30.218 30.5 32.875 33.157 32.875 36.4375C32.875 39.718 30.218 42.375 26.9375 42.375C23.6585 42.375 21 39.718 21 36.4375Z" fill="white"/>
<path opacity="0.4" d="M52.053 32.7191L49.2476 48.1344C48.305 47.4961 47.162 47.125 45.9374 47.125C45.4698 47.125 45.0097 47.1769 44.5718 47.2808L47.3772 31.8656C48.3198 32.5039 49.4628 32.875 50.6874 32.875C51.155 32.875 51.6151 32.823 52.053 32.7191ZM32.6003 38.2336L43.4065 47.689C41.9222 48.3867 40.7792 49.6855 40.2745 51.2664L29.4683 41.8109C30.9526 41.0465 32.0956 39.8144 32.6003 38.2336ZM32.8749 36.4375C32.8749 34.7824 32.1995 33.2906 31.1085 32.2144L44.7499 26.7534C44.7499 26.815 44.7499 26.8759 44.7499 26.9375C44.7499 28.5926 45.4253 30.0844 46.5163 31.1605L32.8081 36.623C32.8081 36.5637 32.8749 36.4969 32.8749 36.4375Z" fill="white"/>
</svg>
