<svg width="80" height="80" viewBox="0 0 80 80" fill="none" xmlns="http://www.w3.org/2000/svg">
<circle cx="40" cy="40" r="40" fill="#651FFF"/>
<g clip-path="url(#clip0_886_530)">
<path d="M40 27.625C40 27.0034 40.5063 26.5 41.125 26.5H43.375C43.9937 26.5 44.5 27.0034 44.5 27.625V29.875C44.5 30.4938 43.9937 31 43.375 31H41.125C40.5063 31 40 30.4938 40 29.875V27.625ZM29.875 35.5C30.4938 35.5 31 36.0063 31 36.625V38.875C31 39.4937 30.4938 40 29.875 40H27.625C27.0034 40 26.5 39.4937 26.5 38.875V36.625C26.5 36.0063 27.0034 35.5 27.625 35.5H29.875ZM41.125 44.5C40.5063 44.5 40 43.9937 40 43.375V41.125C40 40.5063 40.5063 40 41.125 40H43.375C43.9937 40 44.5 40.5063 44.5 41.125V43.375C44.5 43.9937 43.9937 44.5 43.375 44.5H41.125ZM29.875 42.25C30.4938 42.25 31 42.7563 31 43.375V45.625C31 46.2437 30.4938 46.75 29.875 46.75H27.625C27.0034 46.75 26.5 46.2437 26.5 45.625V43.375C26.5 42.7563 27.0034 42.25 27.625 42.25H29.875ZM49 41.125C49 40.5063 49.5063 40 50.125 40H52.375C52.9937 40 53.5 40.5063 53.5 41.125V43.375C53.5 43.9937 52.9937 44.5 52.375 44.5H50.125C49.5063 44.5 49 43.9937 49 43.375V41.125ZM52.375 26.5C52.9937 26.5 53.5 27.0034 53.5 27.625V29.875C53.5 30.4938 52.9937 31 52.375 31H50.125C49.5063 31 49 30.4938 49 29.875V27.625C49 27.0034 49.5063 26.5 50.125 26.5H52.375ZM40 34.375C40 33.7562 40.5063 33.25 41.125 33.25H43.375C43.9937 33.25 44.5 33.7562 44.5 34.375V36.625C44.5 37.2437 43.9937 37.75 43.375 37.75H41.125C40.5063 37.75 40 37.2437 40 36.625V34.375ZM50.125 37.75C49.5063 37.75 49 37.2437 49 36.625V34.375C49 33.7562 49.5063 33.25 50.125 33.25H52.375C52.9937 33.25 53.5 33.7562 53.5 34.375V36.625C53.5 37.2437 52.9937 37.75 52.375 37.75H50.125Z" fill="white"/>
<path opacity="0.4" d="M53.5 22C55.982 22 58 24.0145 58 26.5V53.5C58 55.982 55.982 58 53.5 58H26.5C24.0145 58 22 55.982 22 53.5V35.5C22 33.018 24.0145 31 26.5 31H35.5V26.5C35.5 24.0145 37.518 22 40 22H53.5ZM26.5 45.625C26.5 46.2437 27.0034 46.75 27.625 46.75H29.875C30.4937 46.75 31 46.2437 31 45.625V43.375C31 42.7563 30.4937 42.25 29.875 42.25H27.625C27.0034 42.25 26.5 42.7563 26.5 43.375V45.625ZM43.375 44.5C43.9937 44.5 44.5 43.9937 44.5 43.375V41.125C44.5 40.5063 43.9937 40 43.375 40H41.125C40.5063 40 40 40.5063 40 41.125V43.375C40 43.9937 40.5063 44.5 41.125 44.5H43.375ZM49 43.375C49 43.9937 49.5063 44.5 50.125 44.5H52.375C52.9937 44.5 53.5 43.9937 53.5 43.375V41.125C53.5 40.5063 52.9937 40 52.375 40H50.125C49.5063 40 49 40.5063 49 41.125V43.375ZM27.625 35.5C27.0034 35.5 26.5 36.0063 26.5 36.625V38.875C26.5 39.4937 27.0034 40 27.625 40H29.875C30.4937 40 31 39.4937 31 38.875V36.625C31 36.0063 30.4937 35.5 29.875 35.5H27.625ZM40 29.875C40 30.4937 40.5063 31 41.125 31H43.375C43.9937 31 44.5 30.4937 44.5 29.875V27.625C44.5 27.0034 43.9937 26.5 43.375 26.5H41.125C40.5063 26.5 40 27.0034 40 27.625V29.875ZM50.125 26.5C49.5063 26.5 49 27.0034 49 27.625V29.875C49 30.4937 49.5063 31 50.125 31H52.375C52.9937 31 53.5 30.4937 53.5 29.875V27.625C53.5 27.0034 52.9937 26.5 52.375 26.5H50.125ZM40 36.625C40 37.2437 40.5063 37.75 41.125 37.75H43.375C43.9937 37.75 44.5 37.2437 44.5 36.625V34.375C44.5 33.7563 43.9937 33.25 43.375 33.25H41.125C40.5063 33.25 40 33.7563 40 34.375V36.625ZM52.375 37.75C52.9937 37.75 53.5 37.2437 53.5 36.625V34.375C53.5 33.7563 52.9937 33.25 52.375 33.25H50.125C49.5063 33.25 49 33.7563 49 34.375V36.625C49 37.2437 49.5063 37.75 50.125 37.75H52.375Z" fill="white"/>
</g>
<defs>
<clipPath id="clip0_886_530">
<rect width="36" height="36" fill="white" transform="translate(22 22)"/>
</clipPath>
</defs>
</svg>
