<svg width="80" height="80" viewBox="0 0 80 80" fill="none" xmlns="http://www.w3.org/2000/svg">
<circle cx="40" cy="40" r="40" fill="#00E5FF"/>
<g clip-path="url(#clip0_886_529)">
<path d="M29.8477 27.6304C30.6384 22.735 34.8812 19 40 19C44.7893 19 48.8232 22.2778 49.892 26.7143H47.0714C45.2393 26.7143 43.6321 25.7572 42.7241 24.3164C41.2937 26.5263 38.9232 28 36.1429 28H31.6429C31.008 28 30.3973 27.8634 29.8477 27.6304ZM38.8027 47.8643L36.1429 43.4286H43.8571L41.1973 47.8643L43.8732 57.8205L47.0473 44.867C53.2509 45.8312 58 51.1991 58 57.6759C58 59.0339 56.8911 60.1429 55.533 60.1429H24.4686C23.1049 60.1429 22 59.0339 22 57.6759C22 51.1991 26.7483 45.8312 32.9527 44.867L36.1268 57.8205L38.8027 47.8643Z" fill="white"/>
<path opacity="0.4" d="M42.7242 24.3164C43.6322 25.758 45.2394 26.7143 47.0715 26.7143H49.892C50.1733 27.5339 50.2858 28.3294 50.2858 29.2857C50.2858 34.9669 45.6813 39.5714 40.0001 39.5714C34.3188 39.5714 29.7144 34.9669 29.7144 29.2857C29.7144 28.6509 29.7602 28.1687 29.8469 27.6303C30.3974 27.8714 31.0081 28 31.6429 28H36.1429C38.9233 28 41.2938 26.5262 42.7242 24.3164Z" fill="white"/>
</g>
<defs>
<clipPath id="clip0_886_529">
<rect width="36" height="41.1429" fill="white" transform="translate(22 19)"/>
</clipPath>
</defs>
</svg>
